<svg width="660" height="660" xmlns="http://www.w3.org/2000/svg" xmlns:xlink="http://www.w3.org/1999/xlink" xml:space="preserve" overflow="hidden"><defs><clipPath id="clip0"><rect x="2103" y="61" width="660" height="660"/></clipPath></defs><g clip-path="url(#clip0)" transform="translate(-2103 -61)"><path d="M2498.59 714.433 2497.62 716.251 2497.21 715.866ZM2501.34 707.672 2503.55 707.672 2503.48 709.358 2498.59 714.433 2501.34 709.282ZM2466.18 669.674 2466.18 692.274 2469.43 692.274C2476.4 692.274 2482.34 689.594 2482.34 680.782 2482.34 672.433 2477.5 669.674 2471.17 669.674ZM2689.89 667.452 2717.84 667.452 2717.84 669.14C2715.07 669.292 2709.92 669.985 2709.92 671.669 2709.92 672.588 2716.1 684.154 2722.19 694.419 2725.68 688.903 2734.79 674.194 2734.79 672.588 2734.79 670.289 2730.27 669.37 2726.71 669.14L2726.71 667.452 2747.06 667.452 2747.06 669.14C2745.63 669.292 2743.57 670.061 2742.46 670.671 2740.33 671.897 2739.14 673.046 2737.56 675.192 2735.18 678.41 2729.24 688.137 2725.84 694.037 2723.7 697.636 2723.22 699.937 2723.22 703.458L2723.22 712.958C2723.22 714.642 2723.86 716.021 2725.68 716.787 2726.63 717.169 2730.67 718.013 2732.09 718.091L2732.09 719.774 2703.75 719.774 2703.75 718.091C2705.17 718.013 2709.21 717.555 2710.24 717.171 2712.14 716.481 2712.69 715.026 2712.69 713.34L2712.69 701.315C2712.69 698.939 2712.06 697.328 2710.4 694.419 2707.55 689.057 2702.48 679.94 2699.86 675.651 2698.52 673.352 2696.77 671.513 2694.96 670.443 2693.53 669.674 2691.39 669.216 2689.89 669.14ZM2627.09 667.452 2676.58 667.452 2676.58 681.164 2674.6 681.164C2673.65 677.795 2669.38 670.443 2665.97 669.985 2664.15 669.75 2661.93 669.674 2659.87 669.674L2657.1 669.674 2657.1 712.881C2657.1 714.566 2657.74 715.945 2659.56 716.711 2660.51 717.093 2664.55 717.937 2665.97 718.091L2665.97 719.774 2637.7 719.774 2637.7 718.091C2639.13 718.013 2643.09 717.479 2644.12 717.093 2646.01 716.405 2646.57 714.95 2646.57 713.264L2646.57 669.674 2643.8 669.674C2641.98 669.674 2639.52 669.751 2637.7 669.983 2634.3 670.443 2630.02 677.795 2629.07 681.164L2627.09 681.164ZM2581.56 667.452 2608.4 667.452 2608.4 669.14C2606.98 669.292 2604.05 669.751 2602.62 670.211 2600.72 670.825 2600.25 672.203 2600.25 673.888L2600.25 713.188C2600.25 714.872 2600.88 716.096 2602.62 716.863 2603.57 717.245 2606.98 717.935 2608.4 718.091L2608.4 719.774 2581.56 719.774 2581.56 718.091C2582.99 718.013 2586.23 717.631 2587.26 717.245 2589.16 716.557 2589.72 715.254 2589.72 713.568L2589.72 674.272C2589.72 672.588 2589.16 671.361 2587.26 670.593 2585.84 670.061 2583.06 669.292 2581.56 669.14ZM2447.34 667.452 2475.61 667.452C2485.58 667.452 2494.13 670.977 2494.13 679.328 2494.13 687.677 2485.98 691.204 2479.57 692.887L2479.57 693.499C2483.44 693.959 2489.7 695.872 2491.28 701.466 2492.47 705.679 2492.87 708.974 2493.82 712.653L2497.21 715.866 2492.63 720.618C2485.98 720.618 2482.65 716.939 2481.47 707.824 2480.59 700.701 2479.01 694.573 2470.77 694.573L2466.18 694.573 2466.18 713.264C2466.18 714.95 2466.74 716.329 2468.56 717.015 2469.59 717.403 2472.84 717.937 2474.26 718.091L2474.26 719.774 2447.34 719.774 2447.34 718.091C2448.76 718.013 2452.17 717.555 2453.2 717.171 2455.1 716.481 2455.65 715.104 2455.65 713.34L2455.65 674.194C2455.65 672.51 2455.18 671.053 2453.2 670.365 2451.77 669.828 2448.76 669.292 2447.34 669.14ZM2378.84 667.452 2423.82 667.452 2423.82 680.172 2421.68 680.172C2420.73 676.725 2416.53 670.519 2412.81 669.985 2410.91 669.75 2408.77 669.674 2406.32 669.674L2398 669.674 2398 691.51 2403.95 691.51C2408.3 691.51 2409.72 690.206 2410.75 689.209 2412.1 687.907 2413.2 684.077 2413.44 682.083L2415.58 682.083 2415.58 703.61 2413.44 703.61C2413.2 701.315 2411.86 697.252 2410.75 696.102 2409.64 694.957 2408.14 693.805 2403.95 693.805L2398 693.805 2398 710.733C2398 716.711 2399.35 717.477 2406.95 717.477 2411.94 717.477 2417.32 717.555 2419.22 715.714 2422 713.033 2425.08 706.905 2426.03 704.455L2428.02 704.455 2426.98 719.774 2378.84 719.774 2378.84 718.091C2380.27 717.937 2383.91 717.555 2385.02 717.093 2386.92 716.405 2387.47 715.104 2387.47 713.34L2387.47 674.348C2387.47 672.664 2387 671.361 2385.02 670.593 2383.52 669.985 2380.26 669.292 2378.84 669.14ZM2308.6 667.452 2335.29 667.452 2335.29 669.14C2330.93 669.598 2327.77 670.443 2327.77 671.975 2327.77 672.51 2327.92 673.276 2328.16 673.888 2329.03 676.415 2335.84 695.263 2340.67 708.208 2344.24 700.087 2349.22 688.215 2350.73 684.382 2352.87 679.02 2354.45 675.573 2354.45 673.046 2354.45 670.749 2349.3 669.447 2345.42 669.216L2345.42 667.452 2366.8 667.452 2366.8 669.216C2365.3 669.292 2363.08 669.903 2361.66 670.671 2359.44 672.051 2358.41 674.196 2357.22 676.723 2354.77 682.237 2343.13 709.434 2338.38 720.388L2334.18 720.388C2328.64 705.373 2319.29 680.094 2317.32 674.806L2317.32 674.808C2316.6 672.892 2315.81 671.745 2313.83 670.593 2312.41 669.828 2310.35 669.216 2308.6 669.14ZM2268.69 667.452 2295.54 667.452 2295.54 669.14C2294.11 669.292 2291.18 669.751 2289.76 670.211 2287.86 670.825 2287.38 672.203 2287.38 673.888L2287.38 713.188C2287.38 714.872 2288.01 716.096 2289.76 716.863 2290.71 717.245 2294.11 717.935 2295.54 718.091L2295.54 719.774 2268.69 719.774 2268.69 718.091C2270.12 718.013 2273.37 717.631 2274.4 717.245 2276.29 716.557 2276.85 715.254 2276.85 713.568L2276.85 674.272C2276.85 672.588 2276.29 671.361 2274.4 670.593 2272.97 670.061 2270.2 669.292 2268.69 669.14ZM2190.77 667.452 2208.59 667.452 2239.55 705.525 2239.55 681.933C2239.55 676.263 2238.6 672.74 2236.86 671.513 2235.43 670.519 2230.68 669.292 2229.1 669.14L2229.1 667.452 2252.38 667.452 2252.38 669.14C2251.03 669.292 2246.68 670.061 2245.09 671.129 2243.19 672.433 2242.56 676.109 2242.56 681.473L2242.56 720.158 2238.52 720.158 2204.31 678.101 2204.31 678.101 2204.31 705.145C2204.31 711.043 2205.26 714.26 2207.01 715.638 2208.35 716.711 2213.34 717.937 2214.77 718.091L2214.77 719.774 2191.41 719.774 2191.41 718.091C2192.75 717.937 2197.35 716.939 2198.69 716.021 2200.51 714.718 2201.23 711.427 2201.23 705.525L2201.23 678.714C2201.23 676.415 2200.43 674.118 2198.77 672.662 2196.95 671.129 2193.31 669.598 2190.77 669.216ZM2118.55 667.452 2145.16 667.452 2145.16 669.14C2143.73 669.292 2140.88 669.674 2139.54 670.135 2137.56 670.749 2137.08 672.203 2137.08 673.888L2137.08 703.458C2137.08 711.273 2140.01 717.479 2150.62 717.479 2161.31 717.479 2165.27 710.427 2165.27 703.228L2165.27 681.855C2165.27 675.879 2164.32 672.74 2162.58 671.513 2160.92 670.365 2156.48 669.292 2154.82 669.14L2154.82 667.452 2178.18 667.452 2178.18 669.14C2176.83 669.292 2172.72 669.903 2170.9 671.053 2168.92 672.355 2168.36 675.879 2168.36 681.397L2168.36 703.61C2168.36 716.021 2157.51 721 2148.17 721 2133.92 721 2126.47 713.724 2126.47 704.302L2126.47 674.272C2126.47 672.588 2125.84 671.361 2124.02 670.443 2122.59 669.751 2119.74 669.292 2118.55 669.14ZM2540.15 666.307C2545.06 666.307 2549.88 668.142 2552.65 669.985L2555.03 666.688 2557.8 666.688 2558.12 684.458 2556.3 684.458C2552.73 674.886 2548.06 668.758 2539.83 668.758 2535.87 668.758 2531.75 671.593 2531.75 676.875 2531.75 681.473 2534.37 684.154 2539.43 686.376 2543.15 687.985 2546.88 689.057 2549.96 690.358 2556.45 693.117 2560.66 696.564 2560.66 704.683 2560.66 714.03 2552.81 720.848 2541.65 720.848 2534.37 720.848 2530.09 718.627 2527.48 716.939L2527.48 716.941 2524.86 720.464 2522.17 720.464 2521.7 701.926 2523.6 701.926C2526.68 709.74 2532.39 718.395 2541.57 718.395 2548.14 718.395 2551.55 714.412 2551.55 708.898 2551.55 704.302 2548.7 701.161 2543.39 699.243 2539.43 697.79 2536.19 696.718 2532.62 695.263 2526.21 692.58 2523.12 687.755 2523.12 681.088 2523.12 672.892 2529.85 666.307 2540.15 666.307ZM2651.45 533.594C2637.96 533.594 2629.63 547.822 2628.89 570.833L2670.33 570.358C2670.33 552.804 2668.12 533.594 2651.45 533.594ZM2434.23 533.594C2420.74 533.594 2412.41 547.822 2411.67 570.833L2453.1 570.358C2453.1 552.804 2450.9 533.594 2434.23 533.594ZM2483.99 530.983 2541.37 530.983 2541.37 535.963C2536.46 535.963 2529.84 537.387 2529.84 539.285 2529.84 540.706 2530.82 542.369 2532.05 544.503 2533.76 547.588 2541.61 559.685 2549.95 571.545 2556.08 564.192 2563.68 553.992 2568.34 547.587L2568.33 547.587C2569.56 545.926 2570.54 543.792 2570.54 542.369 2570.54 539.047 2560.24 536.438 2557.05 535.726L2557.05 530.983 2599.96 530.983 2599.96 535.488C2587.95 538.812 2580.59 544.503 2576.18 549.485 2572.99 553.042 2562.69 565.613 2553.62 576.525 2563.19 590.045 2580.1 616.373 2584.52 622.305 2589.66 629.182 2592.85 632.505 2603.15 634.164L2603.15 639.144 2543.57 639.144 2543.57 634.164C2549.46 633.689 2556.57 632.03 2556.57 629.421 2556.57 628.234 2555.1 625.387 2553.62 623.016 2546.51 611.393 2540.87 603.564 2534.75 594.314 2528.13 601.906 2517.58 615.427 2512.43 622.543 2511.21 624.202 2510.47 626.335 2510.47 627.759 2510.47 631.08 2521.75 633.689 2524.94 634.4L2524.94 639.144 2482.03 639.144 2482.03 634.639C2494.04 631.316 2500.18 625.625 2504.59 620.643 2508.02 616.85 2521.26 600.72 2531.07 589.097 2525.18 580.793 2510.96 559.92 2501.89 546.638 2495.52 537.387 2489.39 535.963 2483.99 535.963ZM2362.39 528.374C2371.96 528.374 2380.29 535.726 2380.29 545.928 2380.29 555.413 2374.41 563.242 2364.85 563.242 2355.78 563.242 2349.4 558.974 2349.4 550.195 2349.4 546.876 2351.36 544.029 2351.61 540.946 2340.08 540.946 2331.99 550.195 2329.3 554.467L2329.3 620.88C2329.3 626.098 2331.75 629.896 2335.92 631.555 2340.08 633.214 2347.93 634.164 2352.1 634.4L2352.1 639.144 2284.18 639.144 2284.18 634.4C2288.35 634.164 2291.29 633.689 2294.73 632.505 2299.39 631.08 2301.1 627.287 2301.1 622.068L2301.1 553.042C2300.85 548.062 2298.4 543.079 2294.72 540.471 2291.78 538.574 2286.88 536.914 2282.47 536.676L2282.47 532.169 2327.58 529.323 2329.3 530.983 2329.3 547.113 2329.79 547.113C2340.08 534.303 2351.36 528.374 2362.39 528.374ZM2652.43 527.901C2687.74 527.901 2700.49 549.722 2700.49 574.154L2700.49 576.765 2628.89 576.765 2628.89 579.374C2628.89 608.784 2638.7 630.134 2663.95 630.134 2681.11 630.134 2689.2 624.203 2698.28 608.784L2702.94 611.87C2694.11 629.184 2676.95 642.232 2654.64 642.232 2616.14 642.232 2598.49 616.137 2598.49 584.356L2598.49 584.356C2598.49 554.94 2617.86 527.901 2652.43 527.901ZM2435.21 527.899C2470.51 527.899 2483.26 549.72 2483.26 574.154L2483.26 576.763 2411.67 576.763 2411.67 579.372C2411.67 608.784 2421.48 630.132 2446.73 630.132 2463.9 630.132 2471.98 624.202 2481.06 608.784L2485.71 611.868C2476.89 629.182 2459.72 642.23 2437.41 642.23 2398.92 642.23 2381.27 616.136 2381.27 584.354 2381.27 554.94 2400.64 527.899 2435.21 527.899ZM2179.74 484.255C2174.59 484.255 2166.01 484.491 2161.11 484.728L2161.11 614.952C2161.84 626.098 2168.71 632.03 2184.64 632.03 2218.33 632.03 2235.3 608.784 2239.02 574.369L2239.81 558.972 2239.81 558.974 2239.81 558.972 2239.81 558.972 2238.74 543.368C2233.77 508.408 2211.92 484.255 2179.74 484.255ZM2103.98 477.139 2184.89 477.139C2219.21 477.139 2277.07 494.218 2277.07 559.21 2277.07 614.477 2228.28 639.144 2179.99 639.144L2103 639.144 2103 633.926C2107.9 633.689 2117.71 632.505 2120.9 631.316 2126.78 629.182 2128.5 624.914 2128.5 619.696L2128.5 498.487C2128.5 493.27 2126.78 488.762 2120.9 486.389 2115.26 483.78 2108.39 482.832 2103.98 482.357ZM2743.88 462.195 2745.59 463.855 2745.59 620.643C2745.59 625.86 2747.8 629.657 2752.21 631.555 2755.89 632.978 2758.59 633.926 2763 634.4L2763 639.144 2700.48 639.144 2700.48 634.4C2704.65 634.164 2707.84 633.689 2711.02 632.505 2715.68 631.08 2717.64 627.285 2717.64 622.068L2717.64 487.812C2717.4 482.12 2714.95 476.664 2711.02 474.055 2708.08 472.157 2698.27 469.784 2693.86 469.548L2693.86 464.802ZM2595.41 447.216C2595.41 447.216 2596.88 456.316 2603.08 459.28 2609.28 462.242 2611.23 451.936 2611.23 451.936 2602.57 450.127 2595.41 447.216 2595.41 447.216ZM2641.41 447.094C2640.21 455.983 2636.71 463.211 2631.18 467.331 2631.18 467.331 2650.38 479.689 2657.4 468.558L2657.4 468.556C2664.85 456.753 2651.13 447.741 2641.41 447.094ZM2676.88 333.037C2677.2 339.219 2677.18 344.643 2675.52 350.249 2686.08 349.529 2686.73 334.962 2676.88 333.037ZM2521.58 275.448C2522.63 297.3 2528.5 325.747 2542.78 336.347 2547.21 339.627 2554.64 342.063 2560.57 340.978 2578.42 337.702 2573.8 307.595 2568.28 293.015 2568.28 293.015 2561.13 300.794 2555.1 302.592 2537.42 307.836 2527.68 288.002 2521.58 275.448ZM2572.88 129.163C2572.88 129.163 2570.62 153.044 2578.64 156.018 2587.85 159.442 2599.57 141.077 2599.57 141.077 2588.09 147.423 2574.8 140.026 2572.88 129.163ZM2657.18 113.098C2651.34 112.813 2646.19 115.811 2646.08 120.59 2645.99 124.69 2649.3 128.68 2656.42 129.361 2661.73 129.868 2668.57 128.175 2668.68 121.219 2668.75 116.679 2662.97 113.379 2657.18 113.098ZM2610.48 61.0207C2610.48 61.0207 2588.3 64.2852 2579.78 84.0864 2571.27 103.888 2576.23 119.079 2582.47 123.873 2585.85 126.471 2592.04 132.139 2600.26 131.154 2619.95 128.762 2631.15 104.013 2654.3 104.013 2670.52 104.013 2679.18 124.192 2696.05 114.601 2681.6 129.321 2666.12 148.759 2663.2 176.82 2658.02 161.956 2649.41 146.874 2631.72 147.691 2609.93 148.71 2600.09 170.77 2594.44 183.243 2594.44 183.243 2606.03 176.961 2618.04 175.492 2635.37 173.37 2648.33 182.602 2654.99 193.368 2646.71 202.478 2639.69 211.121 2639.94 229.119 2636.15 213.801 2621.44 190.507 2599.56 201.313 2591.18 205.463 2587.64 214.26 2588.62 225.141 2590.71 248.2 2611.94 262.531 2633.78 270.818 2658.21 280.064 2673.36 295.219 2676.87 318.473 2683.02 317.082 2688.51 319.136 2688.51 319.136 2692.87 304.663 2699.6 290.668 2716.57 290.668 2739.48 290.668 2751.94 321.162 2737.77 340.317 2740.61 316.216 2721.19 309.926 2717.01 319.25 2712.83 328.574 2728.96 342.373 2732.84 349.675 2736.73 356.975 2738.67 375.33 2720.79 379.551 2702.92 383.767 2693.58 362.199 2693.58 362.199 2704.6 369.087 2724.03 365.864 2722.01 351.771 2719.99 337.677 2702.2 332.374 2702.2 332.374 2707.6 348.522 2693.83 362.092 2673.47 357.53 2657.82 385.194 2631.14 403.241 2588.97 405.25 2588.97 405.25 2606.52 414.788 2624.88 424.394 2624.88 424.394 2639.16 399.855 2653.63 396.58 2682.1 390.123 2696.15 422.628 2682.36 444.902 2683.01 435.66 2678.85 422.684 2670.04 419.746 2661.72 416.989 2652.67 421.12 2651.94 428.735 2650.43 444.736 2671.82 446.783 2674.83 460.794 2681.27 490.82 2635.24 494.672 2622.83 474.031 2598.9 484.267 2586.71 462.915 2584.52 443.579 2552.93 430.489 2527.93 416.601 2502.41 395.257 2474.59 371.965 2449.68 346.219 2453.16 295.972 2454 283.894 2456.72 269.585 2455.9 257.583 2453.8 227.286 2437.82 203.266 2406.63 201.978 2384.4 201.051 2366.05 218.959 2367.63 243.019 2368.79 260.688 2376.29 274.398 2383.36 288.027 2392 304.632 2402.47 318.684 2400.47 345.616 2397.8 381.713 2370.24 399.918 2344.36 415.108 2337.33 419.252 2308.14 434.841 2324.52 444.233 2330.14 447.457 2338.52 447.936 2347.11 446.884 2357.78 445.578 2372.22 439.893 2388.25 432.566 2404.29 425.243 2424.31 422.355 2434.37 437.579 2444.43 452.801 2438.08 473.865 2416.2 471.815 2430.12 469.223 2431.45 444.132 2411.41 443.351 2428.6 463.426 2391.68 495.939 2379.26 467.183 2382.52 468.254 2384.31 470.012 2388.15 469.822 2399.91 469.265 2403.94 447.811 2390.22 447.322 2376.39 446.821 2370.99 472.064 2359.42 474.464 2354.63 475.458 2340.74 475.775 2325.5 475.775L2262.76 475.775C2255.17 466.31 2240.5 458.486 2222.62 457.342 2222.62 447.556 2232.91 439.072 2243.87 435.646 2209.48 428.796 2172.72 405.793 2151.47 375.94 2133.18 350.234 2119.28 323.846 2119.19 284.176 2119.1 250.159 2146.08 203.751 2188.37 207.266 2212.67 209.292 2227.93 226.184 2232.17 249.627 2223.9 236.893 2214.22 225.511 2198.63 219.847 2198.63 219.847 2200.91 224.436 2199.91 232.046 2199.91 232.046 2191.61 222.864 2182.25 220.069 2182.25 220.069 2187.96 229.925 2188.06 238.02 2188.06 238.02 2180.1 229.864 2168.54 229.383 2168.54 229.383 2178.89 238.116 2180.09 247.558 2180.09 247.558 2170.6 241.2 2160.64 244.379 2160.64 244.379 2173.38 250.441 2176.47 260.777 2176.47 260.777 2165.42 256.375 2157.66 262.735 2157.66 262.735 2170.07 265.965 2176.89 275.31 2176.89 275.31 2162.73 273.503 2158.42 283.91 2158.42 283.91 2171.37 282.977 2180.06 292.513 2180.06 292.513 2164.82 295.696 2162.63 307.549 2162.63 307.549 2175.97 300.94 2186.13 307.686 2186.13 307.686 2169.53 315.879 2171.02 330.332 2171.02 330.332 2184.15 319.949 2196.2 324.958 2196.2 324.958 2180.21 334.86 2182.3 349.023 2182.3 349.023 2193.54 336.114 2208.57 339.583 2208.57 339.583 2194.93 349.605 2196.62 363.096 2196.62 363.096 2208.77 348.421 2222.92 349.867 2222.92 349.867 2211.51 362.685 2213.75 374.367 2213.75 374.367 2224.74 356.711 2237.58 356.322 2237.58 356.322 2230.04 369.767 2231.08 381.211 2231.08 381.211 2241.44 362.514 2257.78 358.467 2257.78 358.467 2251.57 372.803 2257.45 385.04 2257.45 385.04 2264.25 362.419 2276 356.734 2276 356.734 2275.11 373.115 2287.16 380.824 2287.16 380.824 2285.17 360.395 2295.33 346.618 2295.33 346.618 2299.01 363.867 2311.46 368.104 2311.46 368.104 2303.59 350.085 2304.69 336.401 2304.69 336.401 2317.54 350.663 2329.69 350.085 2329.69 350.085 2309.87 335.975 2296.47 306.557 2296.47 306.557 2312.43 317.082 2323.34 314.916 2323.34 314.916 2288.45 294.292 2282.98 256.037 2282.98 256.037 2296.22 274.635 2311.56 276.178 2311.56 276.178 2277.4 244.957 2285.17 206.223 2285.17 206.223 2294.03 233.78 2308.27 235.707 2308.27 235.707 2294.43 215.376 2294.73 196.297 2295.02 177.413 2304.69 164.241 2304.69 164.241 2301.68 173.138 2301.43 192.244 2310.16 197.345 2310.16 197.345 2303.17 145.554 2350.64 126.6 2350.64 126.6 2337.72 142.696 2338.9 156.968 2351.7 133.737 2371.32 110.352 2410.05 116.582 2398.96 123.062 2386.83 128.547 2384.05 143.07 2395.48 134.672 2414.91 122.37 2438.1 123.873 2451.65 124.734 2462.32 129.836 2470.95 137.108 2456.91 133.131 2440.65 140.914 2434.68 150.997 2451.23 145.639 2478.85 142.559 2491.46 155.638 2496.23 160.584 2501.51 170.651 2501.51 170.651 2493.12 166.067 2475.01 156.656 2464.09 166.225 2489.87 169.547 2508.1 180.147 2512.01 204.627 2505.99 196.089 2499.01 188.489 2486.68 186.083 2494.65 194.668 2503.35 202.567 2508.57 216.541 2516.07 236.589 2521.31 254.473 2547.57 256.909 2526.96 246.184 2517.8 224.373 2515.41 196.013 2522.84 203.517 2527.89 207.431 2535.95 211.233 2524.94 197.876 2508.68 181.92 2505.83 158.29 2502.78 132.942 2516.74 114.209 2529.81 99.2456 2529.81 99.2456 2522.97 118.562 2524.32 131.154 2525.96 146.652 2537.02 158.157 2546.21 164.905 2538.83 152.915 2532.25 138.426 2533.88 121.219 2538.85 68.9101 2593.36 60.5077 2610.48 61.0207Z" fill-rule="evenodd"/></g></svg>