<svg width="661" height="661" xmlns="http://www.w3.org/2000/svg" xmlns:xlink="http://www.w3.org/1999/xlink" xml:space="preserve" overflow="hidden"><g transform="translate(-460 -1001)"><path d="M790.97 1001.33C973.229 1001.33 1120.97 1152.79 1120.97 1339.68 1120.97 1489.14 1026.52 1615.92 895.481 1660.7 878.75 1664.04 872.81 1653.48 872.81 1644.46 872.81 1633.31 873.205 1596.88 873.205 1551.6 873.205 1520.06 862.645 1499.47 850.799 1488.96 924.29 1480.59 1001.51 1451.97 1001.51 1322.02 1001.51 1285.07 988.705 1254.9 967.52 1231.2 970.952 1222.66 982.27 1188.24 964.286 1141.64 964.286 1141.64 936.632 1132.57 873.635 1176.34 847.268 1168.84 819.02 1165.07 790.97 1164.94 762.92 1165.07 734.705 1168.84 708.371 1176.34 645.308 1132.57 617.588 1141.64 617.588 1141.64 599.669 1188.24 610.988 1222.66 614.387 1231.2 593.3 1254.9 580.397 1285.07 580.397 1322.02 580.397 1451.65 657.452 1480.68 730.745 1489.24 721.307 1497.68 712.76 1512.6 709.79 1534.47 690.98 1543.12 643.196 1558.07 613.76 1506.37 613.76 1506.37 596.302 1473.85 563.171 1471.48 563.171 1471.48 530.996 1471.05 560.927 1492.04 560.927 1492.04 582.542 1502.44 597.557 1541.54 597.557 1541.54 616.927 1601.93 708.734 1581.47 708.899 1609.75 709.196 1636.42 709.196 1644.46 709.196 1653.4 703.124 1663.87 686.657 1660.73 555.514 1616.02 460.97 1489.17 460.97 1339.68 460.97 1152.79 608.744 1001.33 790.97 1001.33" fill-rule="evenodd"/></g></svg>