<svg width="622" height="660" xmlns="http://www.w3.org/2000/svg" xmlns:xlink="http://www.w3.org/1999/xlink" xml:space="preserve" overflow="hidden"><defs><clipPath id="clip0"><rect x="1074" y="61" width="622" height="660"/></clipPath></defs><g clip-path="url(#clip0)" transform="translate(-1074 -61)"><path d="M182.264 467.966 124.719 505.973 124.719 506.15C143.397 531.288 162.911 553.395 182.264 572.47ZM413.653 421.376C405.46 422.928 397.322 425.06 389.395 427.757 402.137 437.418 417.332 443.993 433.966 446.409 426.128 438.74 419.358 430.332 413.653 421.376ZM484.281 421.041C478.576 429.997 471.806 438.405 463.969 446.074 480.603 443.659 495.798 437.084 508.54 427.422 500.613 424.725 492.474 422.593 484.281 421.041ZM443.207 418.273C436.613 418.484 430.021 418.944 423.499 419.789 429.043 428.058 435.655 435.744 443.207 442.76ZM452.27 418.273 452.27 442.901C459.877 435.85 466.523 428.128 472.121 419.86 465.546 418.979 458.881 418.484 452.27 418.273ZM297.429 391.941 239.85 429.949 239.85 622.085C261.265 638.092 281.008 650.485 297.429 659.441ZM496.468 390.191C493.997 398.106 490.692 405.81 486.657 413.25 495.952 415.153 505.07 417.763 513.972 421.041 520.406 414.942 525.985 407.961 530.518 400.274 519.393 396.043 508.036 392.659 496.468 390.191ZM399.134 390.156C387.529 392.624 376.102 396.008 364.941 400.275 369.474 407.961 375.036 414.942 381.469 421.041 390.444 417.728 399.632 415.154 408.908 413.215 404.91 405.811 401.622 398.107 399.134 390.156ZM443.207 385.097C431.335 385.326 419.624 386.436 408.054 388.428 410.65 396.379 414.044 404.136 418.256 411.54 426.52 410.253 434.873 409.53 443.207 409.337ZM452.27 385.097 452.27 409.337C460.64 409.53 469.01 410.253 477.31 411.54L483.859 396.676 487.493 388.428 483.859 388.084 483.859 388.085ZM393.376 356.749 351.968 356.749C352.554 369.389 355.594 381.411 360.729 392.288 372.458 387.741 384.49 384.126 396.699 381.518 394.779 373.426 393.66 365.123 393.376 356.749ZM443.207 356.749 402.404 356.749C402.688 364.54 403.789 372.244 405.566 379.755 417.918 377.551 430.501 376.352 443.207 376.106ZM493.198 356.749 483.859 356.749 452.27 356.749 452.27 376.106 483.859 379.161 483.859 379.161 489.999 379.755C491.848 372.244 492.877 364.54 493.198 356.749ZM543.491 356.749 502.226 356.749C501.941 365.123 500.821 373.426 498.885 381.518 511.094 384.162 523.036 387.741 534.748 392.288 539.865 381.411 542.905 369.424 543.491 356.749ZM405.566 324.77C403.773 332.316 402.688 340.001 402.404 347.776L443.207 347.776 443.207 328.385C430.501 328.19 417.918 326.938 405.566 324.77ZM490.034 324.735 483.859 325.332 483.859 325.332 452.27 328.385 452.27 347.776 483.859 347.776 493.198 347.776C492.914 340.001 491.848 332.281 490.034 324.735ZM360.729 312.237C355.594 323.132 352.554 335.136 351.968 347.776L393.376 347.776C393.66 339.403 394.779 331.118 396.699 323.025 384.49 320.399 372.458 316.786 360.729 312.237ZM534.748 312.237C523.036 316.786 511.094 320.364 498.885 323.025 500.821 331.118 501.941 339.403 502.226 347.776L543.491 347.776C542.905 335.136 539.865 323.132 534.748 312.237ZM483.859 307.765 483.859 316.414 487.529 316.061ZM239.847 296.989 182.268 334.961 182.268 467.97 239.847 429.945ZM418.221 293.038C414.009 300.39 410.614 308.146 408.054 316.097 419.624 318.053 431.335 319.234 443.207 319.447L443.207 295.243C434.819 295.03 426.449 294.307 418.221 293.038ZM477.345 293.038C469.1 294.307 460.694 295.03 452.27 295.243L452.27 319.447 483.859 316.414 483.859 307.765ZM381.469 283.484C375.036 289.583 369.474 296.582 364.941 304.215 376.102 308.517 387.529 311.901 399.134 314.369 401.622 306.419 404.874 298.75 408.908 291.346 399.579 289.407 390.444 286.799 381.469 283.484ZM513.972 283.484C505.07 286.799 495.952 289.372 486.694 291.311 490.692 298.716 493.997 306.419 496.468 314.334 508.036 311.866 519.393 308.482 530.518 304.215 525.985 296.582 520.406 289.583 513.972 283.484ZM443.207 261.766C435.655 268.765 429.043 276.469 423.481 284.701 430.021 285.599 436.613 286.075 443.207 286.217ZM452.27 261.624 452.27 286.217C458.881 286.075 465.546 285.565 472.121 284.7 466.523 276.398 459.877 268.658 452.27 261.624ZM463.785 259.596C471.623 267.247 478.393 275.673 484.098 284.594 492.291 283.042 500.43 280.945 508.357 278.265 495.615 268.587 480.419 261.977 463.785 259.596ZM433.966 258.117C417.332 260.497 402.137 267.107 389.395 276.785 397.322 279.465 405.46 281.563 413.653 283.115 419.358 274.193 426.128 265.768 433.966 258.117ZM448.207 247.722C495.309 247.722 535.165 278.731 548.455 321.439L549.432 325.236 550.536 329.276 550.734 330.296 551.042 331.494 551.327 333.361 552.018 336.933 552.471 340.857 552.632 341.911 552.663 342.515 552.924 344.777C553.128 347.42 553.231 350.09 553.231 352.784 553.231 355.479 553.128 358.15 552.924 360.793L552.636 363.285 552.632 363.365 552.611 363.504 552.018 368.639 551.112 373.323 551.042 373.782 550.966 374.076 550.536 376.298C549.948 378.818 549.268 381.303 548.5 383.749L548.34 384.15 544.925 393.476 543.233 396.987 542.856 397.936 542.383 398.751 540.505 402.647C522.73 435.352 488.063 457.554 448.207 457.554 408.351 457.554 373.684 435.352 355.909 402.647L354.14 398.978 351.389 393.32C346.065 380.854 343.12 367.155 343.12 352.782 343.12 342.007 344.776 331.609 347.851 321.826L347.879 321.75 347.959 321.439C361.249 278.731 401.105 247.722 448.207 247.722ZM67.169 215.723C47.9045 218.914 28.7827 222.474 9.7141 226.494 19.6355 288.781 36.5904 343.347 57.711 391.055L67.006 411.077 67.0053 411.078C67.0753 411.183 67.1299 411.289 67.1649 411.394L67.1649 411.389 80.5505 437.269C94.32 462.404 109.182 485.311 124.603 506.055L124.613 506.049 124.715 506.15 124.715 505.973 124.709 505.977 124.709 373.01 67.1648 410.983 67.1648 410.989 67.0982 411.026 67.169 410.979ZM182.258 201.035C163.012 202.727 143.837 204.932 124.713 207.347L124.713 373.005 182.258 334.961ZM325.011 196.028 325.011 660C365.867 637.621 427.405 594.65 483.922 524.647L484.304 524.11 484.304 524.11 524.967 466.974C564.269 404.031 597.131 324.976 612.712 227.091L484.304 206.741 469.821 204.445C421.776 199.276 373.411 196.477 325.011 196.028ZM297.427 195.488C278.233 195.665 259.022 196.317 239.847 197.217L239.847 296.96 297.427 258.97ZM151.292 46.8843 134.889 59.2065 100.821 147.158C146.245 139.841 248.857 131.608 299.701 132.297 301.745 131.379 304.286 130.074 307.965 130.074 246.743 110.172 176.456 107.175 126.5 116.536ZM471.459 46.8843 496.162 116.536C446.224 107.175 376.027 110.172 314.803 130.074 318.447 130.074 320.988 131.379 323.068 132.297 373.876 131.608 476.489 139.841 521.912 147.158L487.862 59.2065ZM416.522 28.4763C421.535 28.4723 426.458 28.5791 431.251 28.796 444.033 29.3749 455.895 30.7352 466.11 32.8604L483.916 46.5747 488.68 47.298C490.314 47.5089 491.558 48.6375 492.091 49.6425L541.78 158.589C543.379 161.622 540.891 164.177 538.029 163.63 462.395 149.369 382.192 144.98 311.035 144.98L310.99 144.98 310.99 144.978 310.965 144.978C239.826 144.978 159.606 149.369 83.9707 163.63 81.1273 164.177 78.5861 161.62 80.2038 158.589L129.909 49.6425C130.442 48.6375 131.705 47.5089 133.304 47.2979L138.084 46.5747 155.909 32.8589C196.748 24.3625 264.014 28.0825 310.93 45.2172L310.99 45.2172 311.072 45.2172C341.884 33.9726 381.429 28.5051 416.522 28.4763ZM311 0 310.99 0 159.511 7.95235C109.735 13.2035 60.7252 21.0046 12.6177 31.2029L12.3869 31.2905C5.33146 32.7368 0 38.9763 0 46.4165L0.0181483 99.9721C0.0181483 135.177 2.16898 168.355 6.00732 199.787 105.865 178.87 208.344 168.408 310.863 168.414L310.99 168.42 310.99 168.422 464.348 176.279C515.304 181.519 565.949 189.378 615.958 199.858 619.814 168.39 621.965 135.195 621.965 99.9735L622 46.4165C622 39.154 616.918 33.0894 610.147 31.3973L609.773 31.2905C513.417 10.841 413.47 0 311 0Z" fill-rule="evenodd" transform="matrix(-1 0 0 1 1696 60.9998)"/></g></svg>