<svg width="769" height="660" xmlns="http://www.w3.org/2000/svg" xmlns:xlink="http://www.w3.org/1999/xlink" xml:space="preserve" overflow="hidden"><defs><clipPath id="clip0"><rect x="3604" y="182" width="769" height="660"/></clipPath></defs><g clip-path="url(#clip0)" transform="translate(-3604 -182)"><path d="M4134.75 567.277C4139.21 562.272 4144.03 556.449 4148.52 550.876 4183.14 507.268 4209.58 459.476 4214.83 433.043 4214.98 432.178 4215.45 429.722 4215.45 427.788 4215.45 425.058 4214.62 423.148 4213.05 423.148 4197.16 423.148 4146.17 503.083 4133.83 567.8L4133.83 568.027 4134.75 567.277ZM4006.95 558.087C4055.15 500.763 4105.79 417.301 4111.19 383.044 4111.35 381.929 4111.51 380.837 4111.49 379.791 4111.42 377.516 4110.64 375.514 4108.82 375.514 4093.56 375.514 4022.93 478.083 4006.95 558.087M3711.01 608.473C3698.29 594.574 3678.61 582.427 3661.03 582.427 3643.98 582.427 3633.05 592.981 3633.05 606.289 3633.05 621.553 3646.29 628.24 3661.11 628.24 3679.09 628.24 3695.4 620.597 3711.01 608.473M3858.66 428.653C3893.22 411.205 3925.98 374.741 3950.44 336.661 3973.03 301.425 3991.11 259.592 3991.11 238.869 3991.11 234.137 3988.98 231.294 3986.23 231.294 3975.79 231.294 3955.93 253.154 3929.22 295.26 3908.43 328.085 3884.2 372.898 3858.66 428.653M4373 560.179C4343.32 606.676 4250.86 734.472 4226.38 842L4196.07 829.694C4205.98 785.154 4235.82 715.887 4269.06 662.453 4261.98 666.638 4254.61 668.208 4248.69 668.208 4239.7 668.208 4232.73 663.931 4228.52 655.924 4225.52 650.146 4223.98 642.617 4223.98 633.654 4223.98 631.698 4224.07 629.742 4224.25 627.535 4195.05 655.537 4171.57 668.185 4148.57 668.185 4130.67 668.185 4115.6 655.902 4108.62 634.359 4079.64 656.993 4051.84 668.185 4028.61 668.185 4006.98 668.185 3989.54 654.696 3981.54 630.128 3952.24 656.061 3927.3 668.185 3907.46 668.185 3896.05 668.185 3886.99 663.203 3881.18 653.763 3876.9 646.802 3874.65 637.453 3874.32 626.648 3855.54 646.143 3828.09 668.185 3799.96 668.185 3771.18 668.185 3751.87 652.626 3736.89 637.203 3712.99 658.04 3686.7 668.185 3658.9 668.185 3637.89 668.185 3604 654.423 3604 606.994 3603.96 568.71 3629.33 542.777 3663.28 542.777 3692.15 542.777 3719.96 561.931 3737.41 581.812 3753.97 561.044 3771.35 531.995 3791.85 490.936 3787.34 491.345 3782.94 491.527 3778.6 491.527 3739.35 491.527 3706.56 473.306 3688.66 441.414 3679 424.171 3674.42 403.949 3674.42 382.179 3674.42 296.193 3743.41 229.474 3803.76 219.647 3807.74 233.887 3811.3 244.852 3814.98 257.886 3755.37 268.805 3705.71 324.355 3705.71 378.653 3705.71 414.344 3731.18 450.195 3785.26 450.195 3794.52 450.195 3803.83 448.784 3812.99 446.805 3860.72 343.076 3933.86 182 3996.81 182 4015.43 182 4025.17 199.834 4025.17 223.674 4025.17 272.717 3998.37 325.515 3980.91 353.062 3953.49 396.442 3903.88 461 3834.6 482.383 3807.66 541.413 3785.51 580.561 3763.34 608.837 3776.77 620.233 3789.37 627.239 3804.38 627.239 3841.67 627.239 3877.84 573.509 3906.09 527.946L3907.09 526.422 3929.1 553.537 3928.09 555.448C3915.61 577.991 3904.1 601.83 3904.1 615.183 3904.1 625.306 3909.54 627.308 3914.21 627.308 3928.48 627.308 3950.5 612.749 3976.41 587.681L3976.41 587.34C3979.27 486.568 4066.62 332.453 4119.64 332.453 4134.61 332.453 4143.21 344.191 4143.21 364.754 4143.21 415.277 4087.86 523.578 4007.34 606.471L4007.34 606.539C4011.5 620.643 4021.09 627.444 4037.38 627.444 4050.08 627.444 4074.93 618.527 4104.46 594.233 4107.87 542.027 4126.66 485.954 4150.5 445.986 4174.41 405.973 4201.22 379.973 4224.39 379.973 4238.68 379.973 4247.12 392.347 4247.12 411.797 4247.12 455.859 4214.62 531.199 4136.34 610.088 4139.81 620.643 4146.53 627.308 4156.99 627.308 4180.31 627.308 4221.38 588.136 4253.37 539.979L4276.34 568.05C4266.53 586.794 4256.61 607.381 4256.93 619.232 4257.01 623.077 4258.66 625.67 4262.52 625.67 4286.1 625.67 4323.21 576.649 4351.04 533.383L4373 560.179M3946.2 459.112C3956.61 459.112 3965.02 472.419 3965.02 488.797 3965.02 505.198 3956.61 518.483 3946.2 518.483 3935.74 518.483 3927.3 505.198 3927.3 488.797 3927.31 472.419 3935.75 459.112 3946.2 459.112" fill-rule="evenodd"/></g></svg>