<svg width="660" height="660" xmlns="http://www.w3.org/2000/svg" xmlns:xlink="http://www.w3.org/1999/xlink" xml:space="preserve" overflow="hidden"><defs><clipPath id="clip0"><rect x="1444" y="1004" width="660" height="660"/></clipPath></defs><g clip-path="url(#clip0)" transform="translate(-1444 -1004)"><path d="M2051.19 1004.06 1500.51 1004.06C1493.41 1003.73 1486.32 1004.8 1479.64 1007.21 1472.95 1009.62 1466.81 1013.33 1461.56 1018.12 1456.31 1022.91 1452.06 1028.68 1449.05 1035.12 1446.03 1041.55 1444.32 1048.52 1444 1055.62L1444 1607.49C1444.42 1622.35 1450.5 1636.48 1461.01 1646.99 1471.52 1657.5 1485.66 1663.58 1500.51 1664L2051.19 1664C2065.63 1663.36 2079.24 1657.08 2089.12 1646.52 2098.99 1635.95 2104.32 1621.95 2103.99 1607.49L2103.99 1055.62C2104.11 1048.71 2102.81 1041.85 2100.18 1035.46 2097.56 1029.07 2093.65 1023.28 2088.7 1018.45 2083.76 1013.63 2077.88 1009.86 2071.43 1007.38 2064.98 1004.91 2058.09 1003.78 2051.19 1004.06ZM1650.25 1554.29 1554.14 1554.29 1554.14 1260.2 1650.25 1260.2 1650.25 1554.29ZM1604.46 1215.65C1597.75 1215.89 1591.07 1214.73 1584.83 1212.26 1578.59 1209.79 1572.93 1206.05 1568.21 1201.29 1563.48 1196.52 1559.79 1190.83 1557.37 1184.57 1554.95 1178.32 1553.85 1171.62 1554.14 1164.92 1553.84 1158.14 1554.96 1151.38 1557.43 1145.06 1559.9 1138.75 1563.67 1133.01 1568.48 1128.24 1573.3 1123.46 1579.06 1119.74 1585.4 1117.32 1591.74 1114.9 1598.51 1113.84 1605.28 1114.19 1611.99 1113.95 1618.67 1115.11 1624.91 1117.58 1631.15 1120.05 1636.81 1123.79 1641.54 1128.55 1646.26 1133.32 1649.95 1139.01 1652.37 1145.27 1654.8 1151.52 1655.9 1158.22 1655.61 1164.92 1655.9 1171.7 1654.78 1178.46 1652.31 1184.78 1649.84 1191.09 1646.07 1196.82 1641.26 1201.6 1636.44 1206.38 1630.68 1210.1 1624.34 1212.52 1618.01 1214.94 1611.23 1216 1604.46 1215.65ZM1994.26 1554.29 1897.74 1554.29 1897.74 1393.43C1897.74 1355.07 1884.13 1328.67 1849.89 1328.67 1839.26 1328.76 1828.91 1332.14 1820.27 1338.34 1811.63 1344.54 1805.12 1353.27 1801.63 1363.32 1798.95 1370.85 1797.83 1378.84 1798.33 1386.83L1798.33 1554.29 1703.46 1554.29 1703.46 1260.2 1798.33 1260.2 1798.33 1301.45C1806.77 1285.95 1819.32 1273.09 1834.6 1264.28 1849.89 1255.47 1867.31 1251.06 1884.95 1251.54 1947.24 1251.54 1994.26 1292.78 1994.26 1380.64L1994.26 1554.29Z" fill-rule="evenodd"/></g></svg>