<svg width="695" height="660" xmlns="http://www.w3.org/2000/svg" xmlns:xlink="http://www.w3.org/1999/xlink" xml:space="preserve" overflow="hidden"><defs><clipPath id="clip0"><rect x="2836" y="117" width="695" height="660"/></clipPath></defs><g clip-path="url(#clip0)" transform="translate(-2836 -117)"><path d="M3267.25 411.039 3267.25 411.126C3259.65 442.26 3253.23 470.438 3245.4 501.312L3383.65 414.344ZM3266.62 259.018 3150.69 376.339 3246.42 376.339ZM3339.89 117C3339.89 117 3309.6 235.885 3276.09 376.078L3530.89 376.078 3531 376.472 3525.16 379.521C3495.04 395.276 3366.53 462.85 3237.97 535.751 3205.64 669.421 3181.92 759.781 3178.24 774.739L3177.77 777C3177.77 776.044 3217.38 546.274 3217.38 546.274 3175.05 570.081 3085.71 621.651 2990.58 676.813L2910.42 723.347 2904.51 715.378 3222.7 515.401 3240.79 410.083 3120.63 406.691C3120.63 406.691 2983.95 545.144 2980.66 548.361L2980.27 548.797C2981.68 546.97 3021.68 495.832 3097.69 406.082L2836 398.753 2836.4 394.297 2841.31 376.73 3122.74 376.078C3224.9 253.626 3339.89 117 3339.89 117Z" fill-rule="evenodd"/></g></svg>