<svg width="849" height="595" xmlns="http://www.w3.org/2000/svg" xmlns:xlink="http://www.w3.org/1999/xlink" xml:space="preserve" overflow="hidden"><g transform="translate(-2426 -1033)"><path d="M2765.6 1440.34 2765.6 1202.23C2850.07 1242.01 2915.49 1280.44 2992.86 1321.86 2929.04 1357.28 2850.07 1397 2765.6 1440.34M3236.35 1083.81C3221.77 1064.59 3196.94 1049.65 3170.5 1044.7 3092.79 1029.95 2607.98 1029.91 2530.31 1044.7 2509.1 1048.68 2490.23 1058.29 2474.01 1073.23 2405.67 1136.7 2427.08 1477.07 2443.56 1532.2 2450.48 1556.06 2459.44 1573.28 2470.71 1584.57 2485.24 1599.51 2505.13 1609.8 2527.98 1614.4 2591.97 1627.66 2921.61 1635.06 3169.15 1616.39 3191.96 1612.42 3212.15 1601.81 3228.07 1586.23 3291.25 1523.02 3286.94 1163.51 3236.35 1083.81" fill-rule="evenodd"/></g></svg>