<svg width="1760" height="1399" xmlns="http://www.w3.org/2000/svg" xmlns:xlink="http://www.w3.org/1999/xlink" xml:space="preserve" overflow="hidden"><defs><clipPath id="clip0"><rect x="1044" y="437" width="1760" height="1399"/></clipPath></defs><g clip-path="url(#clip0)" transform="translate(-1044 -437)"><path d="M1044 556.223C1044 490.378 1097.38 437 1163.22 437L2684.78 437C2750.62 437 2804 490.378 2804 556.223L2804 1716.78C2804 1782.62 2750.62 1836 2684.78 1836L1163.22 1836C1097.38 1836 1044 1782.62 1044 1716.78Z" fill="#6B5FB1" fill-rule="evenodd"/><path d="M1142 757.156C1142 741.053 1155.05 728 1171.16 728L2677.84 728C2693.95 728 2707 741.053 2707 757.156L2707 1640.84C2707 1656.95 2693.95 1670 2677.84 1670L1171.16 1670C1155.05 1670 1142 1656.95 1142 1640.84Z" fill="#453D83" fill-rule="evenodd"/><path d="M1414.72 1415 1353 1352.74 1542.56 1161.5 1353 970.263 1414.72 908 1666 1161.5Z" fill="#FFC000" fill-rule="evenodd"/><path d="M1703 1328 2056 1328 2056 1417 1703 1417Z" fill="#C3EA21" fill-rule="evenodd"/><path d="M2197 582C2197 552.729 2220.73 529 2250 529 2279.27 529 2303 552.729 2303 582 2303 611.271 2279.27 635 2250 635 2220.73 635 2197 611.271 2197 582Z" fill="#FFFFFF" fill-rule="evenodd"/><path d="M2358 582C2358 552.729 2381.73 529 2411 529 2440.27 529 2464 552.729 2464 582 2464 611.271 2440.27 635 2411 635 2381.73 635 2358 611.271 2358 582Z" fill="#FFFFFF" fill-rule="evenodd"/><path d="M2519 582C2519 552.729 2542.73 529 2572 529 2601.27 529 2625 552.729 2625 582 2625 611.271 2601.27 635 2572 635 2542.73 635 2519 611.271 2519 582Z" fill="#FFFFFF" fill-rule="evenodd"/></g></svg>