<svg width="1651" height="1650" xmlns="http://www.w3.org/2000/svg" xmlns:xlink="http://www.w3.org/1999/xlink" xml:space="preserve" overflow="hidden"><defs><clipPath id="clip0"><rect x="1431" y="469" width="1651" height="1650"/></clipPath></defs><g clip-path="url(#clip0)" transform="translate(-1431 -469)"><path d="M1832.91 1553 1832.91 1599.83C1832.91 1620.18 1816.32 1636.67 1795.86 1636.67L1684.73 1636.67C1623.38 1636.74 1573.65 1686.19 1573.59 1747.21L1573.59 1773.44C1526.71 1793.79 1505.3 1848.09 1525.75 1894.71 1546.21 1941.34 1600.8 1962.64 1647.68 1942.29 1694.56 1921.94 1715.98 1867.65 1695.52 1821.02 1686.18 1799.73 1669.09 1782.74 1647.68 1773.44L1647.68 1747.21C1647.68 1726.86 1664.27 1710.36 1684.73 1710.36L1795.86 1710.36C1857.21 1710.29 1906.93 1660.85 1907 1599.83L1907 1553Z" fill="#7F4178" fill-rule="evenodd"/><path d="M1966.56 1388.97C1965.72 1387.25 1741.99 1390.01 1741.21 1388.31L1597.52 1388.31C1577.09 1388.31 1560.52 1371.82 1560.52 1351.47L1560.52 1251.55C1607.35 1231.2 1628.74 1176.91 1608.3 1130.29 1587.87 1083.66 1533.35 1062.37 1486.52 1082.71 1439.7 1103.06 1418.31 1157.35 1438.75 1203.98 1448.08 1225.27 1465.14 1242.26 1486.52 1251.55L1486.52 1351.47C1486.6 1412.48 1536.25 1461.93 1597.52 1462L1794.11 1462 1981.74 1461.83C2010.48 1449.66 1986.45 1396.1 1966.56 1388.97Z" fill="#6B57B5" fill-rule="evenodd"/><path d="M1667.61 833.876C1704.33 833.829 1737.54 812.18 1752.23 778.721L1834.04 778.721C1854.47 778.721 1871.03 795.183 1871.03 815.491L1871.03 1057C1889.89 1050.09 1909.57 1045.61 1929.58 1043.67 1933.17 1027.29 1938.34 1011.28 1945 995.87L1945 815.491C1944.93 754.597 1895.29 705.252 1834.04 705.18L1752.23 705.18C1731.81 658.648 1677.31 637.39 1630.5 657.697 1583.7 678.005 1562.32 732.189 1582.74 778.721 1597.47 812.262 1630.8 833.925 1667.61 833.876Z" fill="#4E4A82" fill-rule="evenodd"/><path d="M2193.51 645.122 2193.51 874.027C2218.65 874.937 2243.55 879.304 2267.49 887.001L2267.49 645.122C2314.3 624.823 2335.69 570.664 2315.26 524.155 2294.83 477.644 2240.32 456.396 2193.51 476.694 2146.7 496.993 2125.31 551.152 2145.74 597.661 2155.07 618.9 2172.13 635.852 2193.51 645.122Z" fill="#6E63AD" fill-rule="evenodd"/><path d="M2605.38 1124.53C2610.13 1127.83 2614.65 1131.4 2619.09 1135L2619.09 1070.31C2619.09 1050.01 2635.68 1033.56 2656.14 1033.56L2767.27 1033.56C2828.62 1033.49 2878.34 984.162 2878.41 923.295L2878.41 897.126C2925.29 876.826 2946.7 822.666 2926.25 776.154 2905.79 729.644 2851.2 708.396 2804.32 728.693 2757.44 748.993 2736.02 803.153 2756.48 849.664 2765.82 870.903 2782.91 887.856 2804.32 897.126L2804.32 923.295C2804.32 943.595 2787.73 960.05 2767.27 960.05L2656.14 960.05C2594.78 960.109 2545.06 1009.44 2545 1070.31L2545 1094.5C2566.48 1101.57 2586.82 1111.68 2605.38 1124.53Z" fill="#7F4178" fill-rule="evenodd"/><path d="M2989.4 1260C2952.69 1260.05 2919.48 1281.71 2904.79 1315.19L2555.71 1315.19C2578.22 1335.48 2497.94 1359.6 2509.06 1387.72L2904.79 1388.78C2925.22 1435.35 2979.71 1456.62 3026.51 1436.3 3073.3 1415.98 3094.68 1361.76 3074.26 1315.19 3059.54 1281.63 3026.21 1259.95 2989.4 1260Z" fill="#6E63AD" fill-rule="evenodd"/><path d="M2684.39 1848.21C2647.67 1848.26 2614.46 1869.9 2599.77 1903.34L2517.96 1903.34C2497.53 1903.34 2480.97 1886.89 2480.97 1866.59 2480.75 1806.27 2480.54 1745.96 2480.32 1685.64 2469.75 1687.43 2452.54 1677.94 2441.83 1678L2407 1746.37 2407 1866.59C2407.07 1927.45 2456.71 1976.78 2517.96 1976.85L2599.77 1976.85C2620.2 2023.36 2674.7 2044.6 2721.5 2024.31 2768.3 2004.01 2789.68 1949.85 2769.26 1903.34 2754.53 1869.82 2721.2 1848.16 2684.39 1848.21Z" fill="#4E4A82" fill-rule="evenodd"/><path d="M2138.49 1942.94 2138.49 1668 2064.51 1668 2064.51 1942.94C2017.7 1963.23 1996.31 2017.37 2016.74 2063.87 2037.17 2110.36 2091.68 2131.6 2138.49 2111.31 2185.3 2091.02 2206.69 2036.88 2186.26 1990.38 2176.93 1969.15 2159.87 1952.2 2138.49 1942.94Z" fill="#6E63AD" fill-rule="evenodd"/><path d="M1771 1205.44C1771 1011.35 1928.35 854 2122.44 854L2349.56 854C2543.65 854 2701 1011.35 2701 1205.44L2701 1431.56C2701 1625.65 2543.65 1783 2349.56 1783L2122.44 1783C1928.35 1783 1771 1625.65 1771 1431.56Z" stroke="#4F4A7C" stroke-width="10.3125" stroke-miterlimit="8" fill="#4F4A7C" fill-rule="evenodd"/><path d="M158.113 0C215.533-0.073995 266.583 63.7188 304.396 106.29 342.209 148.861 385.819 205.153 384.989 255.426 384.159 305.698 349.733 346.052 299.418 407.925 250.656 459.344 214.269 499.735 158.113 503 70.7893 503 0 390.4 0 251.5 0 112.601 70.7893 0 158.113 0Z" stroke="#F2C840" stroke-width="55" stroke-miterlimit="8" fill="none" fill-rule="evenodd" transform="matrix(-1 0 0 1 2529.5 1067.5)"/><path d="M2101.61 1067.5C2159.03 1067.43 2210.08 1131.22 2247.9 1173.79 2285.71 1216.36 2329.32 1272.65 2328.49 1322.93 2327.66 1373.2 2293.23 1413.55 2242.92 1475.43 2194.16 1526.84 2157.77 1567.24 2101.61 1570.5 2014.29 1570.5 1943.5 1457.9 1943.5 1319 1943.5 1180.1 2014.29 1067.5 2101.61 1067.5Z" stroke="#F2C840" stroke-width="55" stroke-miterlimit="8" fill="none" fill-rule="evenodd"/></g></svg>