<svg width="1760" height="1759" xmlns="http://www.w3.org/2000/svg" xmlns:xlink="http://www.w3.org/1999/xlink" xml:space="preserve" overflow="hidden"><g transform="translate(-1320 -358)"><path d="M1320 657.223C1320 591.378 1373.38 538 1439.22 538L2960.78 538C3026.62 538 3080 591.378 3080 657.223L3080 1817.78C3080 1883.62 3026.62 1937 2960.78 1937L1439.22 1937C1373.38 1937 1320 1883.62 1320 1817.78Z" fill="#6B5FB1" fill-rule="evenodd"/><path d="M1418 858.156C1418 842.053 1431.05 829 1447.16 829L2953.84 829C2969.95 829 2983 842.053 2983 858.156L2983 1741.84C2983 1757.95 2969.95 1771 2953.84 1771L1447.16 1771C1431.05 1771 1418 1757.95 1418 1741.84Z" fill="#453D83" fill-rule="evenodd"/><path d="M1690.72 1515 1629 1452.74 1818.56 1261.5 1629 1070.26 1690.72 1008 1942 1261.5Z" fill="#FFC000" fill-rule="evenodd"/><path d="M1979 1428 2332 1428 2332 1517 1979 1517Z" fill="#C3EA21" fill-rule="evenodd"/><path d="M2473 682.5C2473 652.953 2496.73 629 2526 629 2555.27 629 2579 652.953 2579 682.5 2579 712.047 2555.27 736 2526 736 2496.73 736 2473 712.047 2473 682.5Z" fill="#FFFFFF" fill-rule="evenodd"/><path d="M2634 682.5C2634 652.953 2657.73 629 2687 629 2716.27 629 2740 652.953 2740 682.5 2740 712.047 2716.27 736 2687 736 2657.73 736 2634 712.047 2634 682.5Z" fill="#FFFFFF" fill-rule="evenodd"/><path d="M2795 682.5C2795 652.953 2818.51 629 2847.5 629 2876.49 629 2900 652.953 2900 682.5 2900 712.047 2876.49 736 2847.5 736 2818.51 736 2795 712.047 2795 682.5Z" fill="#FFFFFF" fill-rule="evenodd"/></g></svg>