<svg width="1543" height="1539" xmlns="http://www.w3.org/2000/svg" xmlns:xlink="http://www.w3.org/1999/xlink" xml:space="preserve" overflow="hidden"><defs><clipPath id="clip0"><rect x="1526" y="694" width="1543" height="1539"/></clipPath></defs><g clip-path="url(#clip0)" transform="translate(-1526 -694)"><path d="M1526 1459C1526 1036.5 1871.41 694 2297.5 694 2723.59 694 3069 1036.5 3069 1459 3069 1881.5 2723.59 2224 2297.5 2224 1871.41 2224 1526 1881.5 1526 1459Z" fill="#DEEAF6" fill-rule="evenodd"/><path d="M2510.72 1627.72C2510.72 1561.17 2543.85 1507.22 2584.72 1507.22 2625.58 1507.22 2658.72 1561.17 2658.72 1627.72 2658.72 1694.28 2625.58 1748.22 2584.72 1748.22 2543.85 1748.22 2510.72 1694.28 2510.72 1627.72Z" stroke="#000000" stroke-width="18.3048" stroke-miterlimit="8" fill="#C38369" fill-rule="evenodd"/><path d="M2293.96 1886C2457.47 1886 2595.83 1993.88 2641.97 2142.46L2642 2142.59 2597.65 2163.82C2505.44 2202.57 2404.06 2224 2297.64 2224 2191.22 2224 2089.84 2202.57 1997.63 2163.82L1947 2139.58 1958.2 2108.92C2013.52 1977.92 2143.02 1886 2293.96 1886Z" stroke="#000000" stroke-width="18.3048" stroke-miterlimit="8" fill="#C7C5CB" fill-rule="evenodd"/><path d="M1955.57 2076 2631.43 2076C2646.1 2076 2658 2087.94 2658 2102.65L2658 2134.69 2597.28 2163.78C2551.16 2183.19 2502.75 2198.26 2452.56 2208.47L2422.76 2213 2171.61 2213 2141.81 2208.47C2066.52 2193.15 1995.24 2166.91 1929.69 2131.49L1929 2131.07 1929 2102.65C1929 2087.94 1940.9 2076 1955.57 2076Z" stroke="#000000" stroke-width="18.3048" stroke-miterlimit="8" fill="#B2B0BC" fill-rule="evenodd"/><path d="M2177.83 1858 2409.17 1858C2441.1 1858 2467 1883.89 2467 1915.83L2467 2204.81 2452.77 2208.44C2402.52 2218.64 2350.48 2224 2297.18 2224 2243.88 2224 2191.85 2218.64 2141.59 2208.44L2120 2202.94 2120 1915.83C2120 1883.89 2145.89 1858 2177.83 1858Z" stroke="#000000" stroke-width="18.3048" stroke-miterlimit="8" fill="#77718C" fill-rule="evenodd"/><path d="M2235.19 2118 2353.81 2118C2385.95 2118 2412 2144.09 2412 2176.27L2412 2214.66 2376.5 2220.04C2350.53 2222.66 2324.19 2224 2297.52 2224 2270.86 2224 2244.51 2222.66 2218.55 2220.04L2177 2213.74 2177 2176.27C2177 2144.09 2203.05 2118 2235.19 2118Z" stroke="#000000" stroke-width="18.3048" stroke-miterlimit="8" fill="#5C586F" fill-rule="evenodd"/><path d="M2296 2170C2316.99 2170 2334 2187.05 2334 2208.08L2331.13 2222.3 2297.34 2224 2260.84 2222.17 2258 2208.08C2258 2187.05 2275.01 2170 2296 2170Z" fill-rule="evenodd"/><path d="M2280.72 2205.72C2280.72 2199.37 2285.87 2194.22 2292.22 2194.22 2298.58 2194.22 2303.72 2199.37 2303.72 2205.72 2303.72 2212.08 2298.58 2217.22 2292.22 2217.22 2285.87 2217.22 2280.72 2212.08 2280.72 2205.72Z" fill="#FFC000" fill-rule="evenodd"/><path d="M1847.72 1667.22C1847.72 1615.86 1880.85 1574.22 1921.72 1574.22 1962.58 1574.22 1995.72 1615.86 1995.72 1667.22 1995.72 1718.58 1962.58 1760.22 1921.72 1760.22 1880.85 1760.22 1847.72 1718.58 1847.72 1667.22Z" stroke="#000000" stroke-width="18.3048" stroke-miterlimit="8" fill="#C38369" fill-rule="evenodd"/><path d="M1931.02 1639.85C1933.96 1562.59 1917.26 1449.38 2029.09 1327.97 2073.67 1277.54 2195.42 1249.41 2273.05 1249.22 2350.69 1249.04 2441.26 1276.44 2494.93 1326.87 2546.79 1379.5 2601.39 1477.28 2597.52 1640.4 2596.41 1725.05 2592.02 1835.96 2516.74 1938.76 2495.71 1962.72 2473.78 1969.48 2444.07 1994.49 2409.24 2022.55 2359.87 2036.37 2301.08 2033.95 2242.9 2036.49 2167.85 1997 2129.48 1980.4 2091.12 1963.8 2047.85 1952.36 2012.73 1901.34 1983.67 1867.39 1980.34 1836.11 1960.56 1798.12 1947.45 1758.48 1928.07 1717.11 1931.02 1639.85Z" stroke="#000000" stroke-width="18.3048" stroke-miterlimit="8" fill="#DA9D81" fill-rule="evenodd"/><path d="M2034.37 1312.22 2033.55 1313.73C1983.36 1414.51 1993.76 1505.39 1991.17 1572.76 1987.71 1662.59 2010.52 1710.69 2025.97 1756.78 2049.26 1800.94 2053.18 1837.31 2087.41 1876.8 2128.77 1936.11 2179.72 1949.41 2224.9 1968.71 2253.15 1980.77 2298.26 2003.23 2344.86 2017.66L2370.72 2024.63 2352.17 2029.07C2339.07 2030.92 2325.06 2031.62 2309.97 2031.01 2250.23 2033.58 2173.18 1993.55 2133.79 1976.72 2094.4 1959.9 2049.98 1948.3 2013.92 1896.59 1984.08 1862.18 1980.67 1830.47 1960.36 1791.97 1946.9 1751.79 1927.01 1709.85 1930.02 1631.55 1933.04 1553.24 1915.9 1438.49 2030.71 1315.43Z" fill="#C38369" fill-rule="evenodd"/><path d="M1932.02 1636.85C1934.96 1559.59 1918.26 1446.38 2030.09 1324.97 2074.67 1274.54 2196.42 1246.41 2274.05 1246.22 2351.69 1246.04 2442.26 1273.44 2495.93 1323.87 2547.79 1376.5 2602.39 1474.28 2598.52 1637.4 2597.41 1722.05 2593.02 1832.96 2517.74 1935.76 2496.71 1959.72 2474.78 1966.48 2445.07 1991.49 2410.24 2019.55 2360.87 2033.37 2302.08 2030.95 2243.9 2033.49 2168.85 1994 2130.48 1977.4 2092.12 1960.8 2048.85 1949.36 2013.73 1898.34 1984.67 1864.39 1981.34 1833.11 1961.56 1795.12 1948.45 1755.48 1929.07 1714.11 1932.02 1636.85Z" stroke="#000000" stroke-width="18.3048" stroke-miterlimit="8" fill="none" fill-rule="evenodd"/><path d="M2710.54 949.223C2744.29 1006.04 2750.01 1053.52 2747.03 1077.97 2740.33 1163.95 2676.86 1222.34 2597.32 1272.51L2578.02 1282.53 2586.16 1298.36C2606.49 1340.69 2605.72 1342.96 2611.64 1372.9 2624.97 1451.65 2615.85 1557.75 2596.86 1646.32 2584.67 1650.85 2587.77 1490.05 2564.64 1438.48 2531.3 1385.88 2479.9 1316.41 2408.67 1333.7 2337.43 1350.99 2343.39 1348.66 2296.85 1354.14 2250.31 1359.62 2171.08 1348.02 2117.55 1363.62 2056.23 1388.32 1977.5 1431.86 1975.66 1447.71 1971.86 1465.1 2002.45 1488.93 1977.39 1501.49 1968.46 1508.38 1943.13 1514.29 1938.11 1576.86 1933.49 1627.8 1945.35 1759.29 1931.25 1707.26 1927.65 1722.57 1923.25 1705.36 1916.44 1668.7 1909.64 1632.04 1911.11 1538.04 1874.08 1501.72 1902.74 1488.87 1800.82 1382.11 1784.7 1300.08 1768.71 1211.79 1770.38 1143.68 1979.46 1056.31 2051.35 1027.52 2168.21 1010.55 2207.75 1022.45 2223.49 1026.04 2227.05 1027.96 2243.04 1039.18 2355.56 1004.88 2367.77 1020.9 2453.67 1016.98 2558.14 1015.02 2615.75 1021.73 2710.54 949.223Z" fill="#1F1313" fill-rule="evenodd"/><path d="M2439.72 1330.62C2393 1334.57 2363.17 1348.56 2314.35 1352.51 2226.56 1359.94 2158.2 1308.1 2152.5 1240.62L2146.01 1163.6C2140.32 1096.11 2219.5 1042.81 2276.68 1027.99 2348.55 1011.35 2381.37 1019.03 2423.69 1018.77 2343.29 1025.14 2280.46 1084.26 2286.15 1151.74L2292.65 1228.76C2298.35 1296.25 2351.93 1338.05 2439.72 1330.62Z" fill-rule="evenodd"/><path d="M2572.64 1488.06 2352.87 1480.63C2317.55 1479.44 2287.95 1507.1 2286.76 1542.42L2280.6 1724.77C2279.41 1760.09 2307.07 1789.69 2342.38 1790.88L2562.16 1798.31C2597.48 1799.5 2627.08 1771.84 2628.27 1736.52L2634.43 1554.16C2635.63 1518.85 2607.96 1489.25 2572.64 1488.06Z" stroke="#000000" stroke-width="18.3048" stroke-miterlimit="8" fill="#A9D18E" fill-rule="evenodd" fill-opacity="0.6"/><path d="M2505.37 1576.3 2427.75 1604.22C2418.3 1607.62 2413.39 1618.03 2416.79 1627.49 2420.19 1636.94 2430.6 1641.84 2440.06 1638.45L2455.89 1632.75 2459.05 1670.55C2459.89 1680.56 2468.68 1687.99 2478.69 1687.16 2488.7 1686.32 2496.13 1677.53 2495.29 1667.52 2491.44 1625.26 2492.5 1625.24 2490.38 1620.35L2517.68 1610.53C2527.13 1607.13 2532.03 1596.71 2528.64 1587.26 2525.24 1577.81 2514.82 1572.91 2505.37 1576.3Z" fill="#1F1313" fill-rule="evenodd"/><path d="M2133.21 1616.44C2143.33 1616.18 2151.76 1624.17 2152.02 1634.29 2152.29 1644.42 2144.3 1652.84 2134.18 1653.11L2109.64 1653.76 2106.91 1698.23C2106.3 1708.33 2097.59 1716.03 2087.48 1715.41 2077.37 1714.78 2069.68 1706.09 2070.3 1695.97L2072.84 1654.73 2051.75 1655.28C2041.63 1655.55 2033.2 1647.56 2032.94 1637.43 2032.67 1627.31 2040.66 1618.88 2050.79 1618.62Z" fill="#1F1313" fill-rule="evenodd"/><path d="M2062.72 1032.22C2001.2 1072.72 1893.87 1159.3 1927.6 1222.39 1958.94 1282.14 1992.8 1348.47 2024.14 1408.21 1994.14 1439.31 1957.54 1429.79 1987.33 1485.95 1999.78 1517.18 1911.75 1521.19 1890.11 1516.69 1868.47 1512.18 1874.3 1490.38 1857.48 1458.93 1838.78 1425.12 1821.79 1398.27 1803.09 1363.3 1736.51 1223.77 1791.14 1150.86 1886.62 1099.71 1939.33 1068.93 2027.14 1035.03 2062.72 1032.22Z" fill-rule="evenodd"/><path d="M2692.56 1523.82C2732.59 1525.18 2765.69 1556.14 2768.86 1596.06 2770.27 1613.96 2770.7 1632.11 2770.08 1650.47 2769.48 1668.32 2767.9 1685.91 2765.4 1703.2 2759.59 1743.4 2724.77 1772.96 2684.18 1771.59L2617.21 1769.32 2621.71 1761.66C2625.21 1754.11 2627.28 1745.76 2627.58 1736.93L2633.74 1554.58C2634.04 1545.75 2632.53 1537.28 2629.55 1529.52L2625.58 1521.56Z" stroke="#000000" stroke-width="18.3048" stroke-miterlimit="8" fill="#E8E8E8" fill-rule="evenodd"/><path d="M2311.08 1874.25C2319.67 1875.64 2325.72 1882.45 2324.58 1889.47L2324.28 1890.17 2324.4 1890.2C2319.96 1917.77 2281.81 1934.56 2239.22 1927.68 2196.62 1920.81 2165.7 1892.89 2170.14 1865.32L2170.23 1865.33 2170.18 1864.67C2171.31 1857.65 2179.19 1853.09 2187.78 1854.47 2196.37 1855.86 2202.42 1862.67 2201.28 1869.69L2200.72 1871.02 2200.84 1875.42C2203.34 1887.5 2220.74 1899.09 2243.25 1902.72 2265.75 1906.35 2285.92 1900.82 2292.1 1890.15L2293.6 1885.96 2293.48 1884.45C2294.61 1877.43 2302.49 1872.87 2311.08 1874.25Z" fill="#1F1313" fill-rule="evenodd"/></g></svg>