<svg width="1543" height="1540" xmlns="http://www.w3.org/2000/svg" xmlns:xlink="http://www.w3.org/1999/xlink" xml:space="preserve" overflow="hidden"><defs><clipPath id="clip0"><rect x="2113" y="285" width="1543" height="1540"/></clipPath></defs><g clip-path="url(#clip0)" transform="translate(-2113 -285)"><path d="M2113 1050.5C2113 627.726 2458.41 285 2884.5 285 3310.59 285 3656 627.726 3656 1050.5 3656 1473.27 3310.59 1816 2884.5 1816 2458.41 1816 2113 1473.27 2113 1050.5Z" fill="#DEEAF6" fill-rule="evenodd"/><path d="M3097.72 1218.72C3097.72 1152.17 3130.85 1098.22 3171.72 1098.22 3212.58 1098.22 3245.72 1152.17 3245.72 1218.72 3245.72 1285.28 3212.58 1339.22 3171.72 1339.22 3130.85 1339.22 3097.72 1285.28 3097.72 1218.72Z" stroke="#000000" stroke-width="18.3048" stroke-miterlimit="8" fill="#C38369" fill-rule="evenodd"/><path d="M2880.46 1478C3044.21 1478 3182.76 1585.88 3228.97 1734.46L3229 1734.59 3184.58 1755.82C3092.24 1794.57 2990.72 1816 2884.15 1816 2777.58 1816 2676.05 1794.57 2583.71 1755.82L2533 1731.58 2544.22 1700.92C2599.62 1569.92 2729.3 1478 2880.46 1478Z" stroke="#000000" stroke-width="18.3048" stroke-miterlimit="8" fill="#C7C5CB" fill-rule="evenodd"/><path d="M2542.57 1668 3218.43 1668C3233.1 1668 3245 1679.94 3245 1694.65L3245 1726.68 3184.28 1755.78C3138.16 1775.19 3089.75 1790.26 3039.56 1800.47L3009.76 1805 2758.61 1805 2728.81 1800.47C2653.52 1785.15 2582.24 1758.91 2516.69 1723.49L2516 1723.07 2516 1694.65C2516 1679.94 2527.9 1668 2542.57 1668Z" stroke="#000000" stroke-width="18.3048" stroke-miterlimit="8" fill="#B2B0BC" fill-rule="evenodd"/><path d="M2764.83 1450 2996.17 1450C3028.1 1450 3054 1475.89 3054 1507.83L3054 1796.81 3039.77 1800.44C2989.52 1810.64 2937.48 1816 2884.18 1816 2830.88 1816 2778.85 1810.64 2728.59 1800.44L2707 1794.94 2707 1507.83C2707 1475.89 2732.89 1450 2764.83 1450Z" stroke="#000000" stroke-width="18.3048" stroke-miterlimit="8" fill="#77718C" fill-rule="evenodd"/><path d="M2822.19 1710 2940.81 1710C2972.95 1710 2999 1736.09 2999 1768.27L2999 1806.66 2963.5 1812.04C2937.53 1814.66 2911.19 1816 2884.52 1816 2857.86 1816 2831.51 1814.66 2805.55 1812.04L2764 1805.74 2764 1768.27C2764 1736.09 2790.05 1710 2822.19 1710Z" stroke="#000000" stroke-width="18.3048" stroke-miterlimit="8" fill="#5C586F" fill-rule="evenodd"/><path d="M2883 1761C2903.99 1761 2921 1778.36 2921 1799.78L2918.13 1814.27 2884.34 1816 2847.84 1814.13 2845 1799.78C2845 1778.36 2862.01 1761 2883 1761Z" fill-rule="evenodd"/><path d="M2867.72 1797.72C2867.72 1791.37 2872.87 1786.22 2879.22 1786.22 2885.58 1786.22 2890.72 1791.37 2890.72 1797.72 2890.72 1804.08 2885.58 1809.22 2879.22 1809.22 2872.87 1809.22 2867.72 1804.08 2867.72 1797.72Z" fill="#FFC000" fill-rule="evenodd"/><path d="M2434.72 1259.22C2434.72 1207.86 2467.85 1166.22 2508.72 1166.22 2549.58 1166.22 2582.72 1207.86 2582.72 1259.22 2582.72 1310.58 2549.58 1352.22 2508.72 1352.22 2467.85 1352.22 2434.72 1310.58 2434.72 1259.22Z" stroke="#000000" stroke-width="18.3048" stroke-miterlimit="8" fill="#C38369" fill-rule="evenodd"/><path d="M2518.02 1231.35C2520.96 1153.99 2504.26 1040.64 2616.09 919.071 2660.67 868.576 2782.42 840.408 2860.05 840.225 2937.69 840.041 3028.26 867.474 3081.93 917.969 3133.79 970.667 3188.39 1068.57 3184.52 1231.9 3183.41 1316.66 3179.02 1427.71 3103.74 1530.64 3082.71 1554.62 3060.78 1561.4 3031.07 1586.44 2996.24 1614.54 2946.87 1628.37 2888.08 1625.95 2829.9 1628.49 2754.85 1588.95 2716.48 1572.33 2678.12 1555.71 2634.85 1544.26 2599.73 1493.17 2570.67 1459.18 2567.34 1427.86 2547.56 1389.82 2534.45 1350.13 2515.07 1308.7 2518.02 1231.35Z" stroke="#000000" stroke-width="18.3048" stroke-miterlimit="8" fill="#DA9D81" fill-rule="evenodd"/><path d="M2621.37 904.223 2620.55 905.731C2570.36 1006.51 2580.76 1097.39 2578.17 1164.76 2574.71 1254.59 2597.52 1302.69 2612.97 1348.78 2636.26 1392.94 2640.18 1429.31 2674.41 1468.8 2715.77 1528.11 2766.72 1541.41 2811.9 1560.71 2840.15 1572.77 2885.26 1595.23 2931.86 1609.66L2957.72 1616.63 2939.17 1621.07C2926.07 1622.92 2912.06 1623.62 2896.97 1623.01 2837.24 1625.58 2760.18 1585.55 2720.79 1568.72 2681.4 1551.9 2636.98 1540.3 2600.92 1488.59 2571.08 1454.18 2567.67 1422.47 2547.36 1383.97 2533.9 1343.79 2514.01 1301.85 2517.02 1223.55 2520.04 1145.24 2502.9 1030.49 2617.71 907.428Z" fill="#C38369" fill-rule="evenodd"/><path d="M2519.02 1228.85C2521.96 1151.59 2505.26 1038.38 2617.09 916.97 2661.67 866.54 2783.42 838.407 2861.05 838.224 2938.69 838.041 3029.26 865.439 3082.93 915.87 3134.79 968.501 3189.39 1066.28 3185.52 1229.4 3184.41 1314.05 3180.02 1424.96 3104.74 1527.76 3083.71 1551.72 3061.78 1558.48 3032.07 1583.49 2997.24 1611.55 2947.87 1625.37 2889.08 1622.95 2830.9 1625.49 2755.85 1586 2717.48 1569.4 2679.12 1552.8 2635.85 1541.36 2600.73 1490.34 2571.67 1456.39 2568.34 1425.11 2548.56 1387.12 2535.45 1347.48 2516.07 1306.11 2519.02 1228.85Z" stroke="#000000" stroke-width="18.3048" stroke-miterlimit="8" fill="none" fill-rule="evenodd"/><path d="M3297.54 541.223C3331.29 598.039 3337.01 645.519 3334.03 669.966 3327.33 755.951 3263.86 814.336 3184.32 864.506L3165.02 874.528 3173.16 890.364C3193.49 932.694 3192.72 934.961 3198.64 964.897 3211.97 1043.65 3202.85 1149.75 3183.86 1238.32 3171.67 1242.85 3174.77 1082.05 3151.64 1030.48 3118.3 977.882 3066.9 908.415 2995.67 925.702 2924.43 942.99 2930.39 940.663 2883.85 946.143 2837.31 951.623 2758.08 940.023 2704.55 955.618 2643.23 980.316 2564.5 1023.86 2562.66 1039.71 2558.86 1057.1 2589.45 1080.93 2564.39 1093.49 2555.46 1100.38 2530.13 1106.29 2525.11 1168.86 2520.49 1219.8 2532.35 1351.29 2518.25 1299.26 2514.65 1314.57 2510.25 1297.36 2503.44 1260.7 2496.64 1224.04 2498.11 1130.04 2461.08 1093.72 2489.74 1080.87 2387.82 974.109 2371.7 892.078 2355.71 803.791 2357.38 735.68 2566.46 648.312 2638.35 619.52 2755.21 602.554 2794.75 614.453 2810.49 618.041 2814.05 619.958 2830.04 631.181 2942.56 596.878 2954.77 612.902 3040.67 608.984 3145.14 607.022 3202.75 613.734 3297.54 541.223Z" fill="#1F1313" fill-rule="evenodd"/><path d="M3026.72 921.624C2980 925.575 2950.17 939.564 2901.35 943.515 2813.56 950.939 2745.2 899.099 2739.5 831.615L2733.01 754.597C2727.32 687.113 2806.5 633.807 2863.68 618.986 2935.55 602.355 2968.37 610.026 3010.69 609.773 2930.29 616.141 2867.46 675.261 2873.15 742.744L2879.65 819.763C2885.35 887.247 2938.93 929.048 3026.72 921.624Z" fill-rule="evenodd"/><path d="M3141.27 1067.45 2922.32 1085.77C2887.13 1088.71 2861 1119.63 2863.94 1154.83L2879.13 1336.59C2882.07 1371.79 2912.98 1397.94 2948.16 1395L3167.11 1376.69C3202.29 1373.74 3228.44 1342.82 3225.49 1307.61L3210.3 1125.86C3207.36 1090.66 3176.45 1064.51 3141.27 1067.45Z" stroke="#000000" stroke-width="18.3048" stroke-miterlimit="8" fill="#A9D18E" fill-rule="evenodd" fill-opacity="0.6"/><path d="M3091.59 1168.29 3014.65 1195.96C3005.28 1199.32 3000.42 1209.65 3003.78 1219.02 3007.15 1228.39 3017.48 1233.24 3026.85 1229.88L3042.54 1224.24 3045.67 1261.7C3046.5 1271.62 3055.21 1278.99 3065.14 1278.16 3075.06 1277.33 3082.43 1268.62 3081.6 1258.69 3077.78 1216.81 3078.83 1216.79 3076.73 1211.94L3103.79 1202.21C3113.16 1198.84 3118.02 1188.52 3114.65 1179.15 3111.28 1169.78 3100.95 1164.93 3091.59 1168.29Z" fill="#1F1313" fill-rule="evenodd"/><path d="M2649.72 624.223C2588.2 664.637 2480.87 751.035 2514.6 814.002 2545.94 873.627 2579.8 939.816 2611.14 999.44 2581.14 1030.48 2544.54 1020.97 2574.33 1077.01 2586.78 1108.19 2498.75 1112.18 2477.11 1107.69 2455.47 1103.19 2461.3 1081.44 2444.48 1050.05 2425.78 1016.31 2408.79 989.515 2390.09 954.617 2323.51 815.371 2378.14 742.618 2473.62 691.569 2526.33 660.852 2614.14 627.026 2649.72 624.223Z" fill-rule="evenodd"/><path d="M3264.4 1087.5C3304.24 1084.18 3340.67 1110.96 3348.47 1150.1 3351.97 1167.64 3354.51 1185.56 3356.03 1203.8 3357.52 1221.53 3358.01 1239.13 3357.55 1256.52 3356.49 1296.98 3325.42 1330.29 3285.01 1333.66L3218.34 1339.22 3221.91 1331.11C3224.5 1323.24 3225.57 1314.73 3224.84 1305.97L3209.66 1124.79C3208.93 1116.02 3206.45 1107.81 3202.59 1100.47L3197.72 1093.06Z" stroke="#000000" stroke-width="18.3048" stroke-miterlimit="8" fill="#E8E8E8" fill-rule="evenodd"/><path d="M2897.17 1465.98C2905.71 1467.35 2911.71 1474.07 2910.58 1480.99L2910.28 1481.69 2910.41 1481.72C2905.99 1508.92 2868.09 1525.48 2825.77 1518.7 2783.45 1511.92 2752.72 1484.37 2757.14 1457.16L2757.23 1457.18 2757.18 1456.53C2758.3 1449.6 2766.13 1445.1 2774.67 1446.47 2783.2 1447.83 2789.21 1454.56 2788.08 1461.48L2787.52 1462.79 2787.64 1467.14C2790.12 1479.06 2807.41 1490.49 2829.77 1494.07 2852.13 1497.65 2872.17 1492.2 2878.31 1481.67L2879.8 1477.54 2879.68 1476.04C2880.8 1469.12 2888.64 1464.61 2897.17 1465.98Z" fill="#1F1313" fill-rule="evenodd"/><path d="M2661.77 1291.35C2662.59 1301.06 2671.13 1308.28 2680.84 1307.47 2690.56 1306.66 2697.78 1298.12 2696.97 1288.4L2693.9 1251.7 2709.98 1254.6C2719.57 1256.33 2728.76 1249.95 2730.49 1240.35 2732.22 1230.76 2725.85 1221.57 2716.24 1219.84L2637.42 1205.63C2627.84 1203.9 2618.64 1210.27 2616.91 1219.87 2615.18 1229.47 2621.55 1238.65 2631.15 1240.39L2658.87 1245.38C2659.35 1244.81 2658.66 1250.3 2661.77 1291.35Z" fill="#1F1313" fill-rule="evenodd"/></g></svg>