<svg width="1543" height="1539" xmlns="http://www.w3.org/2000/svg" xmlns:xlink="http://www.w3.org/1999/xlink" xml:space="preserve" overflow="hidden"><defs><clipPath id="clip0"><rect x="2379" y="329" width="1543" height="1539"/></clipPath></defs><g clip-path="url(#clip0)" transform="translate(-2379 -329)"><path d="M2379 1094C2379 671.502 2724.41 329 3150.5 329 3576.59 329 3922 671.502 3922 1094 3922 1516.5 3576.59 1859 3150.5 1859 2724.41 1859 2379 1516.5 2379 1094Z" fill="#DEEAF6" fill-rule="evenodd"/><path d="M3363.72 1262.22C3363.72 1195.95 3396.85 1142.22 3437.72 1142.22 3478.58 1142.22 3511.72 1195.95 3511.72 1262.22 3511.72 1328.5 3478.58 1382.22 3437.72 1382.22 3396.85 1382.22 3363.72 1328.5 3363.72 1262.22Z" stroke="#000000" stroke-width="18.3048" stroke-miterlimit="8" fill="#C38369" fill-rule="evenodd"/><path d="M3146.96 1521C3310.47 1521 3448.83 1628.88 3494.97 1777.46L3495 1777.59 3450.65 1798.82C3358.44 1837.57 3257.06 1859 3150.64 1859 3044.22 1859 2942.84 1837.57 2850.63 1798.82L2800 1774.58 2811.2 1743.92C2866.52 1612.92 2996.02 1521 3146.96 1521Z" stroke="#000000" stroke-width="18.3048" stroke-miterlimit="8" fill="#C7C5CB" fill-rule="evenodd"/><path d="M2808.57 1711 3484.43 1711C3499.1 1711 3511 1722.94 3511 1737.65L3511 1769.68 3450.28 1798.78C3404.16 1818.19 3355.75 1833.26 3305.56 1843.47L3275.76 1848 3024.61 1848 2994.81 1843.47C2919.52 1828.15 2848.24 1801.91 2782.69 1766.49L2782 1766.07 2782 1737.65C2782 1722.94 2793.9 1711 2808.57 1711Z" stroke="#000000" stroke-width="18.3048" stroke-miterlimit="8" fill="#B2B0BC" fill-rule="evenodd"/><path d="M3031.67 1493 3262.33 1493C3294.18 1493 3320 1518.89 3320 1550.83L3320 1839.81 3305.82 1843.44C3255.7 1853.64 3203.82 1859 3150.67 1859 3097.53 1859 3045.64 1853.64 2995.53 1843.44L2974 1837.94 2974 1550.83C2974 1518.89 2999.82 1493 3031.67 1493Z" stroke="#000000" stroke-width="18.3048" stroke-miterlimit="8" fill="#77718C" fill-rule="evenodd"/><path d="M3088.19 1753 3206.81 1753C3238.95 1753 3265 1779.09 3265 1811.27L3265 1849.66 3229.5 1855.04C3203.53 1857.66 3177.19 1859 3150.52 1859 3123.86 1859 3097.51 1857.66 3071.55 1855.04L3030 1848.74 3030 1811.27C3030 1779.09 3056.05 1753 3088.19 1753Z" stroke="#000000" stroke-width="18.3048" stroke-miterlimit="8" fill="#5C586F" fill-rule="evenodd"/><path d="M3149 1805C3169.99 1805 3187 1822.05 3187 1843.08L3184.13 1857.3 3150.34 1859 3113.84 1857.17 3111 1843.08C3111 1822.05 3128.01 1805 3149 1805Z" fill-rule="evenodd"/><path d="M3133.72 1840.72C3133.72 1834.37 3138.87 1829.22 3145.22 1829.22 3151.58 1829.22 3156.72 1834.37 3156.72 1840.72 3156.72 1847.08 3151.58 1852.22 3145.22 1852.22 3138.87 1852.22 3133.72 1847.08 3133.72 1840.72Z" fill="#FFC000" fill-rule="evenodd"/><path d="M2700.72 1302.22C2700.72 1250.86 2733.85 1209.22 2774.72 1209.22 2815.58 1209.22 2848.72 1250.86 2848.72 1302.22 2848.72 1353.58 2815.58 1395.22 2774.72 1395.22 2733.85 1395.22 2700.72 1353.58 2700.72 1302.22Z" stroke="#000000" stroke-width="18.3048" stroke-miterlimit="8" fill="#C38369" fill-rule="evenodd"/><path d="M2784.02 1274.85C2786.96 1197.59 2770.26 1084.38 2882.09 962.97 2926.67 912.54 3048.42 884.407 3126.05 884.225 3203.69 884.041 3294.26 911.439 3347.93 961.87 3399.79 1014.5 3454.39 1112.28 3450.52 1275.4 3449.41 1360.05 3445.02 1470.96 3369.74 1573.76 3348.71 1597.72 3326.78 1604.48 3297.07 1629.49 3262.24 1657.55 3212.87 1671.37 3154.08 1668.95 3095.9 1671.49 3020.85 1632 2982.48 1615.4 2944.12 1598.8 2900.85 1587.36 2865.73 1536.34 2836.67 1502.39 2833.34 1471.11 2813.56 1433.12 2800.45 1393.48 2781.07 1352.11 2784.02 1274.85Z" stroke="#000000" stroke-width="18.3048" stroke-miterlimit="8" fill="#DA9D81" fill-rule="evenodd"/><path d="M2887.37 947.223 2886.55 948.731C2836.36 1049.51 2846.76 1140.39 2844.17 1207.76 2840.71 1297.59 2863.52 1345.69 2878.97 1391.78 2902.26 1435.94 2906.18 1472.31 2940.41 1511.8 2981.77 1571.11 3032.72 1584.41 3077.9 1603.71 3106.15 1615.77 3151.26 1638.23 3197.86 1652.66L3223.72 1659.63 3205.17 1664.07C3192.07 1665.92 3178.06 1666.62 3162.97 1666.01 3103.24 1668.58 3026.18 1628.55 2986.79 1611.72 2947.4 1594.9 2902.98 1583.3 2866.92 1531.59 2837.08 1497.18 2833.67 1465.47 2813.36 1426.97 2799.9 1386.79 2780.01 1344.85 2783.02 1266.55 2786.04 1188.24 2768.9 1073.49 2883.71 950.428Z" fill="#C38369" fill-rule="evenodd"/><path d="M2785.02 1271.85C2787.96 1194.59 2771.26 1081.38 2883.09 959.97 2927.67 909.54 3049.42 881.407 3127.05 881.224 3204.69 881.041 3295.26 908.439 3348.93 958.87 3400.79 1011.5 3455.39 1109.28 3451.52 1272.4 3450.41 1357.05 3446.02 1467.96 3370.74 1570.76 3349.71 1594.72 3327.78 1601.48 3298.07 1626.49 3263.24 1654.55 3213.87 1668.37 3155.08 1665.95 3096.9 1668.49 3021.85 1629 2983.48 1612.4 2945.12 1595.8 2901.85 1584.36 2866.73 1533.34 2837.67 1499.39 2834.34 1468.11 2814.56 1430.12 2801.45 1390.48 2782.07 1349.11 2785.02 1271.85Z" stroke="#000000" stroke-width="18.3048" stroke-miterlimit="8" fill="none" fill-rule="evenodd"/><path d="M3563.54 584.223C3597.29 641.039 3603.01 688.519 3600.03 712.966 3593.33 798.951 3529.86 857.336 3450.32 907.506L3431.02 917.528 3439.16 933.364C3459.49 975.694 3458.72 977.961 3464.64 1007.9 3477.97 1086.65 3468.85 1192.75 3449.86 1281.32 3437.67 1285.85 3440.77 1125.05 3417.64 1073.48 3384.3 1020.88 3332.9 951.415 3261.67 968.702 3190.43 985.99 3196.39 983.663 3149.85 989.143 3103.31 994.623 3024.08 983.023 2970.55 998.618 2909.23 1023.32 2830.5 1066.86 2828.66 1082.71 2824.86 1100.1 2855.45 1123.93 2830.39 1136.49 2821.46 1143.38 2796.13 1149.29 2791.11 1211.86 2786.49 1262.8 2798.35 1394.29 2784.25 1342.26 2780.65 1357.57 2776.25 1340.36 2769.44 1303.7 2762.64 1267.04 2764.11 1173.04 2727.08 1136.72 2755.74 1123.87 2653.82 1017.11 2637.7 935.078 2621.71 846.791 2623.38 778.68 2832.46 691.312 2904.35 662.52 3021.21 645.554 3060.75 657.453 3076.49 661.041 3080.05 662.958 3096.04 674.181 3208.56 639.878 3220.77 655.902 3306.67 651.984 3411.14 650.022 3468.75 656.734 3563.54 584.223Z" fill="#1F1313" fill-rule="evenodd"/><path d="M3292.72 965.557C3246 969.52 3216.17 983.551 3167.35 987.513 3079.56 994.96 3011.2 942.966 3005.5 875.281L2999.01 798.033C2993.32 730.349 3072.5 676.883 3129.68 662.018 3201.55 645.338 3234.37 653.032 3276.69 652.778 3196.29 659.165 3133.46 718.461 3139.15 786.145L3145.65 863.394C3151.35 931.078 3204.93 973.004 3292.72 965.557Z" fill-rule="evenodd"/><path d="M3407.27 1110.45 3188.32 1128.77C3153.13 1131.71 3127 1162.63 3129.94 1197.83L3145.13 1379.59C3148.07 1414.79 3178.98 1440.94 3214.16 1438L3433.11 1419.69C3468.29 1416.74 3494.44 1385.82 3491.49 1350.61L3476.3 1168.86C3473.36 1133.66 3442.45 1107.51 3407.27 1110.45Z" stroke="#000000" stroke-width="18.3048" stroke-miterlimit="8" fill="#A9D18E" fill-rule="evenodd" fill-opacity="0.6"/><path d="M3358.37 1211.29 3280.75 1238.96C3271.3 1242.32 3266.39 1252.65 3269.79 1262.02 3273.19 1271.39 3283.6 1276.24 3293.06 1272.88L3308.89 1267.24 3312.05 1304.7C3312.89 1314.62 3321.68 1321.99 3331.69 1321.16 3341.7 1320.33 3349.13 1311.62 3348.29 1301.69 3344.44 1259.81 3345.5 1259.79 3343.38 1254.94L3370.68 1245.21C3380.13 1241.84 3385.03 1231.52 3381.64 1222.15 3378.24 1212.78 3367.82 1207.93 3358.37 1211.29Z" fill="#1F1313" fill-rule="evenodd"/><path d="M2915.72 667.224C2854.21 707.721 2746.87 794.297 2780.6 857.394 2811.94 917.141 2845.8 983.467 2877.14 1043.21 2847.14 1074.31 2810.54 1064.79 2840.33 1120.95 2852.78 1152.18 2764.75 1156.19 2743.11 1151.69 2721.47 1147.18 2727.3 1125.38 2710.48 1093.93 2691.78 1060.12 2674.79 1033.27 2656.09 998.298 2589.51 858.765 2644.14 785.862 2739.62 734.708 2792.33 703.928 2880.14 670.032 2915.72 667.224Z" fill-rule="evenodd"/><path d="M3530.81 1130.5C3570.9 1127.16 3607.57 1154.05 3615.41 1193.35 3618.93 1210.96 3621.49 1228.95 3623.02 1247.26 3624.52 1265.07 3625.01 1282.73 3624.55 1300.2 3623.48 1340.81 3592.21 1374.25 3551.55 1377.64L3484.47 1383.22 3488.06 1375.08C3490.66 1367.18 3491.75 1358.64 3491.01 1349.84L3475.74 1167.94C3475 1159.13 3472.5 1150.89 3468.62 1143.53L3463.72 1136.09Z" stroke="#000000" stroke-width="18.3048" stroke-miterlimit="8" fill="#E8E8E8" fill-rule="evenodd"/><path d="M2927.99 1334.75C2928.8 1344.47 2937.34 1351.69 2947.06 1350.87 2956.78 1350.06 2964 1341.52 2963.19 1331.81L2960.12 1295.1 2976.2 1298C2985.79 1299.74 2994.98 1293.35 2996.71 1283.76 2998.44 1274.16 2992.06 1264.98 2982.46 1263.24L2903.64 1249.03C2894.05 1247.3 2884.86 1253.68 2883.12 1263.28 2881.39 1272.88 2887.77 1282.06 2897.37 1283.79L2925.09 1288.79C2925.57 1288.21 2924.88 1293.71 2927.99 1334.75Z" fill="#1F1313" fill-rule="evenodd"/><path d="M3045.23 1493.59 3171.96 1493.23 3174.84 1501.13C3177.16 1507.49 3168.81 1514.67 3162.03 1516.03 3135.87 1521.11 3076.22 1531.02 3051.54 1520.75L3045.23 1493.59Z" fill="#FFFFFF" fill-rule="evenodd"/><path d="M3184.95 1499.61C3184.67 1496.37 3182.17 1489.14 3177.15 1488.86 3133.59 1487.56 3083.25 1488.58 3038.76 1489.23 3035.98 1489.05 3033.19 1489.32 3030.5 1490.07 3027.8 1490.81 3025.57 1492.85 3024.64 1495.44 3021.76 1519.08 3034.3 1545.04 3053.25 1559.4 3065.88 1568.67 3081.76 1572.2 3097.18 1572.2L3097.18 1572.2C3137.86 1573.4 3189.5 1545.22 3184.95 1499.61ZM3117.43 1516.95C3101.64 1517.88 3061.89 1516.49 3058.27 1514.72 3056.41 1513.98 3054.36 1511.39 3052.97 1508.05 3051.58 1504.71 3051.11 1501.38 3051.86 1499.24 3075.73 1499.15 3155.88 1498.32 3164.7 1497.57 3166.1 1497.48 3167.58 1500.63 3167.58 1504.34 3162.2 1510.55 3125.42 1516.67 3117.43 1516.95Z" fill="#1F1313" fill-rule="evenodd"/></g></svg>