<svg width="1542" height="1539" xmlns="http://www.w3.org/2000/svg" xmlns:xlink="http://www.w3.org/1999/xlink" xml:space="preserve" overflow="hidden"><defs><clipPath id="clip0"><rect x="1723" y="106" width="1542" height="1539"/></clipPath></defs><g clip-path="url(#clip0)" transform="translate(-1723 -106)"><path d="M1723 871C1723 448.502 2068.19 106 2494 106 2919.81 106 3265 448.502 3265 871 3265 1293.5 2919.81 1636 2494 1636 2068.19 1636 1723 1293.5 1723 871Z" fill="#DEEAF6" fill-rule="evenodd"/><path d="M2706.72 1039.22C2706.72 972.949 2739.85 919.223 2780.72 919.223 2821.58 919.223 2854.72 972.949 2854.72 1039.22 2854.72 1105.5 2821.58 1159.22 2780.72 1159.22 2739.85 1159.22 2706.72 1105.5 2706.72 1039.22Z" stroke="#000000" stroke-width="18.3048" stroke-miterlimit="8" fill="#C38369" fill-rule="evenodd"/><path d="M2489.96 1298C2653.47 1298 2791.83 1405.88 2837.97 1554.46L2838 1554.59 2793.65 1575.82C2701.44 1614.57 2600.06 1636 2493.64 1636 2387.22 1636 2285.84 1614.57 2193.63 1575.82L2143 1551.58 2154.2 1520.92C2209.52 1389.92 2339.02 1298 2489.96 1298Z" stroke="#000000" stroke-width="18.3048" stroke-miterlimit="8" fill="#C7C5CB" fill-rule="evenodd"/><path d="M2151.61 1488 2828.39 1488C2843.08 1488 2855 1499.94 2855 1514.65L2855 1546.68 2794.2 1575.78C2748.02 1595.19 2699.54 1610.26 2649.28 1620.47L2619.43 1625 2367.94 1625 2338.1 1620.47C2262.71 1605.15 2191.33 1578.91 2125.69 1543.49L2125 1543.07 2125 1514.65C2125 1499.94 2136.92 1488 2151.61 1488Z" stroke="#000000" stroke-width="18.3048" stroke-miterlimit="8" fill="#B2B0BC" fill-rule="evenodd"/><path d="M2374.67 1270 2605.33 1270C2637.18 1270 2663 1295.89 2663 1327.83L2663 1616.81 2648.82 1620.44C2598.7 1630.64 2546.82 1636 2493.67 1636 2440.53 1636 2388.64 1630.64 2338.53 1620.44L2317 1614.94 2317 1327.83C2317 1295.89 2342.82 1270 2374.67 1270Z" stroke="#000000" stroke-width="18.3048" stroke-miterlimit="8" fill="#77718C" fill-rule="evenodd"/><path d="M2431.19 1530 2549.81 1530C2581.95 1530 2608 1556.09 2608 1588.27L2608 1626.66 2572.5 1632.04C2546.53 1634.66 2520.19 1636 2493.52 1636 2466.86 1636 2440.51 1634.66 2414.55 1632.04L2373 1625.74 2373 1588.27C2373 1556.09 2399.05 1530 2431.19 1530Z" stroke="#000000" stroke-width="18.3048" stroke-miterlimit="8" fill="#5C586F" fill-rule="evenodd"/><path d="M2492.5 1582C2513.77 1582 2531 1599.05 2531 1620.08L2528.1 1634.3 2493.86 1636 2456.88 1634.17 2454 1620.08C2454 1599.05 2471.23 1582 2492.5 1582Z" fill-rule="evenodd"/><path d="M2476.72 1617.72C2476.72 1611.37 2481.87 1606.22 2488.22 1606.22 2494.58 1606.22 2499.72 1611.37 2499.72 1617.72 2499.72 1624.08 2494.58 1629.22 2488.22 1629.22 2481.87 1629.22 2476.72 1624.08 2476.72 1617.72Z" fill="#FFC000" fill-rule="evenodd"/><path d="M2043.72 1079.22C2043.72 1027.86 2076.85 986.223 2117.72 986.223 2158.58 986.223 2191.72 1027.86 2191.72 1079.22 2191.72 1130.58 2158.58 1172.22 2117.72 1172.22 2076.85 1172.22 2043.72 1130.58 2043.72 1079.22Z" stroke="#000000" stroke-width="18.3048" stroke-miterlimit="8" fill="#C38369" fill-rule="evenodd"/><path d="M2128.02 1051.85C2130.95 974.591 2114.28 861.384 2225.95 739.97 2270.46 689.54 2392.02 661.407 2469.54 661.224 2547.06 661.041 2637.49 688.439 2691.09 738.87 2742.87 791.501 2797.38 889.276 2793.52 1052.4 2792.41 1137.05 2788.03 1247.96 2712.86 1350.76 2691.86 1374.72 2669.97 1381.48 2640.3 1406.49 2605.52 1434.55 2556.23 1448.37 2497.53 1445.95 2439.43 1448.49 2364.49 1409 2326.18 1392.4 2287.88 1375.8 2244.67 1364.36 2209.61 1313.34 2180.59 1279.39 2177.27 1248.11 2157.52 1210.12 2144.43 1170.48 2125.08 1129.11 2128.02 1051.85Z" stroke="#000000" stroke-width="18.3048" stroke-miterlimit="8" fill="#DA9D81" fill-rule="evenodd"/><path d="M2230.61 724.223 2229.78 725.731C2179.48 826.513 2189.91 917.392 2187.31 984.761 2183.84 1074.59 2206.71 1122.69 2222.19 1168.78 2245.53 1212.94 2249.46 1249.31 2283.76 1288.8 2325.22 1348.11 2376.29 1361.41 2421.57 1380.71 2449.88 1392.77 2495.09 1415.23 2541.8 1429.66L2567.72 1436.63 2549.13 1441.07C2536 1442.92 2521.95 1443.62 2506.83 1443.01 2446.96 1445.58 2369.73 1405.55 2330.25 1388.72 2290.77 1371.9 2246.25 1360.3 2210.11 1308.59 2180.21 1274.18 2176.78 1242.47 2156.43 1203.97 2142.94 1163.79 2123 1121.85 2126.02 1043.55 2129.05 965.238 2111.87 850.493 2226.94 727.428Z" fill="#C38369" fill-rule="evenodd"/><path d="M2128.02 1048.85C2130.96 971.591 2114.26 858.384 2226.09 736.97 2270.67 686.539 2392.42 658.407 2470.05 658.224 2547.69 658.041 2638.26 685.439 2691.93 735.869 2743.79 788.501 2798.39 886.276 2794.52 1049.4 2793.41 1134.05 2789.02 1244.96 2713.74 1347.76 2692.71 1371.72 2670.78 1378.48 2641.07 1403.49 2606.24 1431.55 2556.87 1445.37 2498.08 1442.95 2439.9 1445.49 2364.85 1406 2326.48 1389.4 2288.12 1372.8 2244.85 1361.36 2209.73 1310.34 2180.67 1276.39 2177.34 1245.11 2157.56 1207.12 2144.45 1167.48 2125.07 1126.11 2128.02 1048.85Z" stroke="#000000" stroke-width="18.3048" stroke-miterlimit="8" fill="none" fill-rule="evenodd"/><path d="M2906.54 361.223C2940.29 418.039 2946.01 465.519 2943.03 489.966 2936.33 575.951 2872.86 634.336 2793.32 684.506L2774.02 694.527 2782.16 710.364C2802.49 752.694 2801.72 754.961 2807.64 784.896 2820.97 863.647 2811.85 969.753 2792.86 1058.32 2780.67 1062.85 2783.77 902.047 2760.64 850.481 2727.3 797.882 2675.9 728.415 2604.67 745.702 2533.43 762.99 2539.39 760.663 2492.85 766.143 2446.31 771.623 2367.08 760.023 2313.55 775.618 2252.23 800.316 2173.5 843.856 2171.66 859.709 2167.86 877.102 2198.45 900.929 2173.39 913.492 2164.46 920.378 2139.13 926.289 2134.11 988.858 2129.49 1039.8 2141.35 1171.29 2127.25 1119.26 2123.65 1134.57 2119.25 1117.36 2112.44 1080.7 2105.64 1044.04 2107.11 950.039 2070.08 913.72 2098.74 900.872 1996.82 794.109 1980.7 712.078 1964.71 623.791 1966.38 555.68 2175.46 468.311 2247.35 439.52 2364.21 422.554 2403.75 434.453 2419.49 438.041 2423.05 439.958 2439.04 451.181 2551.56 416.878 2563.77 432.902 2649.67 428.984 2754.14 427.022 2811.75 433.734 2906.54 361.223Z" fill="#1F1313" fill-rule="evenodd"/><path d="M2636.72 742.557C2589.84 746.52 2559.91 760.551 2510.92 764.513 2422.84 771.959 2354.24 719.965 2348.53 652.281L2342.01 575.033C2336.3 507.349 2415.75 453.883 2473.12 439.018 2545.24 422.338 2578.17 430.032 2620.63 429.778 2539.96 436.165 2476.92 495.461 2482.63 563.145L2489.15 640.393C2494.87 708.078 2548.63 750.004 2636.72 742.557Z" fill-rule="evenodd"/><path d="M2750.27 887.449 2531.32 905.765C2496.13 908.708 2470 939.631 2472.94 974.832L2488.13 1156.59C2491.07 1191.79 2521.98 1217.94 2557.16 1215L2776.11 1196.69C2811.29 1193.74 2837.44 1162.82 2834.49 1127.61L2819.3 945.857C2816.36 910.657 2785.45 884.506 2750.27 887.449Z" stroke="#000000" stroke-width="18.3048" stroke-miterlimit="8" fill="#A9D18E" fill-rule="evenodd" fill-opacity="0.6"/><path d="M2701.59 988.288 2624.65 1015.95C2615.28 1019.32 2610.42 1029.65 2613.78 1039.02 2617.15 1048.39 2627.48 1053.24 2636.85 1049.88L2652.54 1044.24 2655.67 1081.7C2656.5 1091.62 2665.21 1098.98 2675.14 1098.16 2685.06 1097.33 2692.43 1088.62 2691.6 1078.69 2687.78 1036.81 2688.83 1036.79 2686.73 1031.94L2713.79 1022.21C2723.16 1018.84 2728.02 1008.52 2724.65 999.151 2721.28 989.782 2710.95 984.927 2701.59 988.288Z" fill="#1F1313" fill-rule="evenodd"/><path d="M2322.28 1022.49C2332.27 1020.78 2341.75 1027.51 2343.45 1037.51 2345.16 1047.51 2338.44 1057.01 2328.46 1058.72L2304.26 1062.86 2307.89 1107.35C2308.72 1117.46 2301.19 1126.33 2291.09 1127.16 2281 1127.98 2272.14 1120.46 2271.31 1110.34L2267.95 1069.07 2247.15 1072.63C2237.16 1074.34 2227.68 1067.61 2225.98 1057.61 2224.27 1047.6 2230.99 1038.11 2240.98 1036.4Z" fill="#1F1313" fill-rule="evenodd"/><path d="M2258.72 444.224C2197.21 484.721 2089.87 571.297 2123.6 634.394 2154.94 694.142 2188.8 760.467 2220.14 820.214 2190.14 851.314 2153.54 841.788 2183.33 897.946 2195.78 929.183 2107.75 933.188 2086.11 928.685 2064.47 924.183 2070.3 902.382 2053.48 870.931 2034.78 837.122 2017.79 810.269 1999.09 775.298 1932.51 635.765 1987.14 562.862 2082.62 511.708 2135.33 480.928 2223.14 447.032 2258.72 444.224Z" fill-rule="evenodd"/><path d="M2874.4 907.503C2914.24 904.165 2950.67 931.054 2958.47 970.352 2961.97 987.962 2964.51 1005.95 2966.03 1024.26 2967.52 1042.07 2968.01 1059.73 2967.55 1077.2 2966.49 1117.81 2935.41 1151.25 2895.01 1154.64L2828.34 1160.22 2831.91 1152.08C2834.5 1144.18 2835.57 1135.64 2834.84 1126.84L2819.66 944.937C2818.93 936.13 2816.45 927.89 2812.59 920.528L2807.72 913.089Z" stroke="#000000" stroke-width="18.3048" stroke-miterlimit="8" fill="#E8E8E8" fill-rule="evenodd"/><path d="M2388.23 1270.61 2514.96 1270.24 2517.84 1278.39C2520.16 1284.94 2511.81 1292.34 2505.03 1293.75 2478.87 1298.99 2419.22 1309.2 2394.54 1298.62L2388.23 1270.61Z" fill="#FFFFFF" fill-rule="evenodd"/><path d="M2527.95 1276.61C2527.67 1273.37 2525.17 1266.14 2520.15 1265.86 2476.59 1264.56 2426.25 1265.58 2381.76 1266.23 2378.98 1266.05 2376.19 1266.32 2373.5 1267.07 2370.8 1267.81 2368.57 1269.85 2367.64 1272.44 2364.76 1296.08 2377.3 1322.04 2396.25 1336.4 2408.88 1345.67 2424.76 1349.2 2440.18 1349.2L2440.18 1349.2C2480.86 1350.4 2532.5 1322.22 2527.95 1276.61ZM2460.43 1293.95C2444.64 1294.88 2404.89 1293.49 2401.27 1291.72 2399.41 1290.98 2397.36 1288.39 2395.97 1285.05 2394.58 1281.71 2394.11 1278.38 2394.86 1276.24 2418.73 1276.15 2498.88 1275.32 2507.7 1274.57 2509.1 1274.48 2510.58 1277.63 2510.58 1281.34 2505.2 1287.55 2468.42 1293.67 2460.43 1293.95Z" fill="#1F1313" fill-rule="evenodd"/></g></svg>