<svg width="1542" height="1539" xmlns="http://www.w3.org/2000/svg" xmlns:xlink="http://www.w3.org/1999/xlink" xml:space="preserve" overflow="hidden"><defs><clipPath id="clip0"><rect x="1562" y="208" width="1542" height="1539"/></clipPath></defs><g clip-path="url(#clip0)" transform="translate(-1562 -208)"><path d="M1562 973C1562 550.502 1907.19 208 2333 208 2758.81 208 3104 550.502 3104 973 3104 1395.5 2758.81 1738 2333 1738 1907.19 1738 1562 1395.5 1562 973Z" fill="#DEEAF6" fill-rule="evenodd"/><path d="M2545.72 1141.72C2545.72 1075.17 2578.85 1021.22 2619.72 1021.22 2660.58 1021.22 2693.72 1075.17 2693.72 1141.72 2693.72 1208.28 2660.58 1262.22 2619.72 1262.22 2578.85 1262.22 2545.72 1208.28 2545.72 1141.72Z" stroke="#000000" stroke-width="18.3048" stroke-miterlimit="8" fill="#C38369" fill-rule="evenodd"/><path d="M2329.46 1401C2493.21 1401 2631.76 1508.56 2677.97 1656.7L2678 1656.83 2633.58 1678C2541.24 1716.63 2439.72 1738 2333.15 1738 2226.58 1738 2125.05 1716.63 2032.71 1678L1982 1653.83 1993.22 1623.26C2048.62 1492.65 2178.3 1401 2329.46 1401Z" stroke="#000000" stroke-width="18.3048" stroke-miterlimit="8" fill="#C7C5CB" fill-rule="evenodd"/><path d="M1991.57 1591 2667.43 1591C2682.1 1591 2694 1602.85 2694 1617.46L2694 1649.26 2633.28 1678.14C2587.16 1697.41 2538.75 1712.37 2488.56 1722.51L2458.76 1727 2207.61 1727 2177.81 1722.51C2102.52 1707.29 2031.24 1681.24 1965.69 1646.08L1965 1645.67 1965 1617.46C1965 1602.85 1976.9 1591 1991.57 1591Z" stroke="#000000" stroke-width="18.3048" stroke-miterlimit="8" fill="#B2B0BC" fill-rule="evenodd"/><path d="M2213.83 1373 2445.17 1373C2477.1 1373 2503 1398.82 2503 1430.67L2503 1718.87 2488.77 1722.48C2438.52 1732.66 2386.48 1738 2333.18 1738 2279.88 1738 2227.85 1732.66 2177.59 1722.48L2156 1716.99 2156 1430.67C2156 1398.82 2181.89 1373 2213.83 1373Z" stroke="#000000" stroke-width="18.3048" stroke-miterlimit="8" fill="#77718C" fill-rule="evenodd"/><path d="M2271.19 1633 2389.81 1633C2421.95 1633 2448 1658.84 2448 1690.72L2448 1728.74 2412.5 1734.08C2386.53 1736.67 2360.19 1738 2333.52 1738 2306.86 1738 2280.51 1736.67 2254.55 1734.08L2213 1727.84 2213 1690.72C2213 1658.84 2239.05 1633 2271.19 1633Z" stroke="#000000" stroke-width="18.3048" stroke-miterlimit="8" fill="#5C586F" fill-rule="evenodd"/><path d="M2332 1684C2352.99 1684 2370 1701.05 2370 1722.08L2367.13 1736.3 2333.34 1738 2296.84 1736.17 2294 1722.08C2294 1701.05 2311.01 1684 2332 1684Z" fill-rule="evenodd"/><path d="M2316.72 1720.23C2316.72 1713.61 2321.87 1708.23 2328.22 1708.23 2334.58 1708.23 2339.72 1713.61 2339.72 1720.23 2339.72 1726.86 2334.58 1732.23 2328.22 1732.23 2321.87 1732.23 2316.72 1726.86 2316.72 1720.23Z" fill="#FFC000" fill-rule="evenodd"/><path d="M1883.72 1181.72C1883.72 1130.64 1916.85 1089.22 1957.72 1089.22 1998.58 1089.22 2031.72 1130.64 2031.72 1181.72 2031.72 1232.81 1998.58 1274.22 1957.72 1274.22 1916.85 1274.22 1883.72 1232.81 1883.72 1181.72Z" stroke="#000000" stroke-width="18.3048" stroke-miterlimit="8" fill="#C38369" fill-rule="evenodd"/><path d="M1967.02 1153.85C1969.96 1076.59 1953.26 963.384 2065.09 841.97 2109.67 791.54 2231.42 763.407 2309.05 763.225 2386.69 763.041 2477.26 790.439 2530.93 840.87 2582.79 893.501 2637.39 991.276 2633.52 1154.4 2632.41 1239.05 2628.02 1349.96 2552.74 1452.76 2531.71 1476.72 2509.78 1483.48 2480.07 1508.49 2445.24 1536.55 2395.87 1550.37 2337.08 1547.95 2278.9 1550.49 2203.85 1511 2165.48 1494.4 2127.12 1477.8 2083.85 1466.36 2048.73 1415.34 2019.67 1381.39 2016.34 1350.11 1996.56 1312.12 1983.45 1272.48 1964.07 1231.11 1967.02 1153.85Z" stroke="#000000" stroke-width="18.3048" stroke-miterlimit="8" fill="#DA9D81" fill-rule="evenodd"/><path d="M2070.37 827.223 2069.55 828.731C2019.36 929.513 2029.76 1020.39 2027.17 1087.76 2023.71 1177.59 2046.52 1225.69 2061.97 1271.78 2085.26 1315.94 2089.18 1352.31 2123.4 1391.8 2164.77 1451.11 2215.72 1464.41 2260.9 1483.71 2289.15 1495.77 2334.26 1518.23 2380.86 1532.66L2406.72 1539.63 2388.17 1544.07C2375.07 1545.92 2361.06 1546.62 2345.97 1546.01 2286.23 1548.58 2209.18 1508.55 2169.79 1491.72 2130.4 1474.9 2085.98 1463.3 2049.92 1411.59 2020.08 1377.18 2016.67 1345.47 1996.36 1306.97 1982.9 1266.79 1963.01 1224.85 1966.02 1146.55 1969.04 1068.24 1951.9 953.493 2066.71 830.428Z" fill="#C38369" fill-rule="evenodd"/><path d="M1968.02 1151.85C1970.95 1074.59 1954.28 961.384 2065.94 839.97 2110.46 789.54 2232.02 761.407 2309.54 761.224 2387.06 761.041 2477.49 788.439 2531.09 838.87 2582.87 891.501 2637.38 989.276 2633.52 1152.4 2632.41 1237.05 2628.03 1347.96 2552.86 1450.76 2531.86 1474.72 2509.97 1481.48 2480.3 1506.49 2445.52 1534.55 2396.23 1548.37 2337.53 1545.95 2279.43 1548.49 2204.49 1509 2166.18 1492.4 2127.88 1475.8 2084.67 1464.36 2049.61 1413.34 2020.59 1379.39 2017.27 1348.11 1997.52 1310.12 1984.43 1270.48 1965.08 1229.11 1968.02 1151.85Z" stroke="#000000" stroke-width="18.3048" stroke-miterlimit="8" fill="none" fill-rule="evenodd"/><path d="M2746.54 464.223C2780.29 521.039 2786.01 568.519 2783.03 592.966 2776.33 678.951 2712.86 737.336 2633.32 787.506L2614.02 797.528 2622.16 813.364C2642.49 855.694 2641.72 857.961 2647.64 887.897 2660.97 966.647 2651.85 1072.75 2632.86 1161.32 2620.67 1165.85 2623.77 1005.05 2600.64 953.481 2567.3 900.882 2515.9 831.415 2444.67 848.702 2373.43 865.99 2379.39 863.663 2332.85 869.143 2286.31 874.623 2207.08 863.023 2153.55 878.618 2092.23 903.316 2013.5 946.856 2011.66 962.709 2007.86 980.102 2038.45 1003.93 2013.39 1016.49 2004.46 1023.38 1979.13 1029.29 1974.11 1091.86 1969.49 1142.8 1981.35 1274.29 1967.25 1222.26 1963.65 1237.57 1959.25 1220.36 1952.44 1183.7 1945.64 1147.04 1947.11 1053.04 1910.08 1016.72 1938.74 1003.87 1836.82 897.109 1820.7 815.078 1804.71 726.791 1806.38 658.68 2015.46 571.312 2087.35 542.52 2204.21 525.554 2243.75 537.453 2259.49 541.041 2263.05 542.958 2279.04 554.181 2391.56 519.878 2403.77 535.902 2489.67 531.984 2594.14 530.022 2651.75 536.734 2746.54 464.223Z" fill="#1F1313" fill-rule="evenodd"/><path d="M2475.72 844.624C2429 848.575 2399.17 862.564 2350.35 866.515 2262.56 873.939 2194.2 822.099 2188.5 754.615L2182.01 677.597C2176.32 610.113 2255.5 556.807 2312.68 541.986 2384.55 525.355 2417.37 533.026 2459.69 532.773 2379.29 539.141 2316.46 598.261 2322.15 665.744L2328.65 742.763C2334.35 810.247 2387.93 852.048 2475.72 844.624Z" fill-rule="evenodd"/><path d="M2590.03 990.449 2370.48 1008.77C2335.2 1011.71 2308.99 1042.63 2311.94 1077.83L2327.17 1259.59C2330.12 1294.79 2361.12 1320.94 2396.39 1318L2615.95 1299.69C2651.23 1296.74 2677.44 1265.82 2674.49 1230.61L2659.26 1048.86C2656.31 1013.66 2625.32 987.506 2590.03 990.449Z" stroke="#000000" stroke-width="18.3048" stroke-miterlimit="8" fill="#A9D18E" fill-rule="evenodd" fill-opacity="0.6"/><path d="M2540.59 1091.29 2463.65 1118.96C2454.28 1122.32 2449.42 1132.65 2452.78 1142.02 2456.15 1151.39 2466.48 1156.24 2475.85 1152.88L2491.54 1147.24 2494.67 1184.7C2495.5 1194.62 2504.21 1201.99 2514.14 1201.16 2524.06 1200.33 2531.43 1191.62 2530.6 1181.69 2526.78 1139.81 2527.83 1139.79 2525.73 1134.94L2552.79 1125.21C2562.16 1121.84 2567.02 1111.52 2563.65 1102.15 2560.28 1092.78 2549.95 1087.93 2540.59 1091.29Z" fill="#1F1313" fill-rule="evenodd"/><path d="M2346.17 1388.98C2354.71 1390.35 2360.71 1397.07 2359.58 1403.99L2359.28 1404.69 2359.41 1404.72C2354.99 1431.92 2317.09 1448.48 2274.77 1441.7 2232.45 1434.92 2201.72 1407.37 2206.14 1380.16L2206.23 1380.18 2206.18 1379.53C2207.3 1372.6 2215.13 1368.1 2223.67 1369.47 2232.2 1370.83 2238.21 1377.56 2237.08 1384.48L2236.52 1385.79 2236.64 1390.14C2239.12 1402.06 2256.41 1413.49 2278.77 1417.07 2301.13 1420.65 2321.17 1415.2 2327.31 1404.67L2328.8 1400.54 2328.68 1399.04C2329.8 1392.12 2337.64 1387.61 2346.17 1388.98Z" fill="#1F1313" fill-rule="evenodd"/><path d="M2162.28 1124.49C2172.27 1122.78 2181.75 1129.51 2183.45 1139.51 2185.16 1149.51 2178.44 1159.01 2168.46 1160.72L2144.26 1164.86 2147.89 1209.35C2148.72 1219.46 2141.19 1228.33 2131.09 1229.16 2121 1229.98 2112.14 1222.46 2111.31 1212.34L2107.95 1171.07 2087.15 1174.63C2077.16 1176.34 2067.68 1169.61 2065.98 1159.61 2064.27 1149.6 2070.99 1140.11 2080.98 1138.4Z" fill="#1F1313" fill-rule="evenodd"/><path d="M2098.72 547.223C2037.2 587.637 1929.87 674.035 1963.6 737.002 1994.94 796.627 2028.8 862.816 2060.14 922.44 2030.14 953.476 1993.54 943.97 2023.33 1000.01 2035.78 1031.19 1947.75 1035.18 1926.11 1030.69 1904.47 1026.19 1910.3 1004.44 1893.48 973.052 1874.78 939.313 1857.79 912.515 1839.09 877.617 1772.51 738.371 1827.14 665.618 1922.62 614.569 1975.33 583.852 2063.14 550.026 2098.72 547.223Z" fill-rule="evenodd"/><path d="M2713.4 1009.5C2753.24 1006.16 2789.67 1033.05 2797.47 1072.35 2800.97 1089.96 2803.51 1107.95 2805.03 1126.26 2806.52 1144.07 2807.01 1161.73 2806.55 1179.2 2805.49 1219.81 2774.41 1253.25 2734.01 1256.64L2667.34 1262.22 2670.91 1254.08C2673.5 1246.18 2674.57 1237.64 2673.84 1228.84L2658.66 1046.94C2657.93 1038.13 2655.45 1029.89 2651.59 1022.53L2646.72 1015.09Z" stroke="#000000" stroke-width="18.3048" stroke-miterlimit="8" fill="#E8E8E8" fill-rule="evenodd"/></g></svg>