<svg width="2830" height="3713" xmlns="http://www.w3.org/2000/svg" xmlns:xlink="http://www.w3.org/1999/xlink" overflow="hidden"><defs><clipPath id="clip0"><rect x="785" y="-619" width="2830" height="3713"/></clipPath></defs><g clip-path="url(#clip0)" transform="translate(-785 619)"><rect x="785" y="-619" width="2830" height="3713" fill="#DEEBF7"/><path d="M2553 955.5C2553 855.813 2602.7 775 2664 775 2725.3 775 2775 855.813 2775 955.5 2775 1055.19 2725.3 1136 2664 1136 2602.7 1136 2553 1055.19 2553 955.5Z" stroke="#000000" stroke-width="27.5" stroke-miterlimit="8" fill="#C38369" fill-rule="evenodd"/><path d="M1681 1891C1681 1588.9 1925.9 1344 2228 1344 2530.1 1344 2775 1588.9 2775 1891 2775 2193.1 2530.1 2438 2228 2438 1925.9 2438 1681 2193.1 1681 1891Z" stroke="#000000" stroke-width="27.5" stroke-miterlimit="8" fill="#C7C5CB" fill-rule="evenodd"/><path d="M1681 1668.88C1681 1646.86 1698.86 1629 1720.88 1629L2735.12 1629C2757.14 1629 2775 1646.86 2775 1668.88L2775 1794.11C2775 1816.14 2757.14 1834 2735.12 1834L1720.88 1834C1698.86 1834 1681 1816.14 1681 1794.11Z" stroke="#000000" stroke-width="27.5" stroke-miterlimit="8" fill="#B2B0BC" fill-rule="evenodd"/><path d="M1680 1875.88C1680 1853.86 1697.86 1836 1719.88 1836L2734.12 1836C2756.14 1836 2774 1853.86 2774 1875.88L2774 2001.11C2774 2023.14 2756.14 2041 2734.12 2041L1719.88 2041C1697.86 2041 1680 2023.14 1680 2001.11Z" stroke="#000000" stroke-width="27.5" stroke-miterlimit="8" fill="#B2B0BC" fill-rule="evenodd"/><path d="M1968 1388.67C1968 1340.8 2006.8 1302 2054.67 1302L2401.35 1302C2449.21 1302 2488.02 1340.8 2488.02 1388.67L2488.02 2393.33C2488.02 2441.2 2449.21 2480 2401.35 2480L2054.67 2480C2006.8 2480 1968 2441.2 1968 2393.33Z" stroke="#000000" stroke-width="27.5" stroke-miterlimit="8" fill="#77718C" fill-rule="evenodd"/><path d="M2053 1779.16C2053 1731.02 2092.02 1692 2140.16 1692L2317.84 1692C2365.98 1692 2405 1731.02 2405 1779.16L2405 1932.84C2405 1980.98 2365.98 2020 2317.84 2020L2140.16 2020C2092.02 2020 2053 1980.98 2053 1932.84Z" stroke="#000000" stroke-width="27.5" stroke-miterlimit="8" fill="#5C586F" fill-rule="evenodd"/><path d="M2174 1826.5C2174 1794.74 2199.74 1769 2231.5 1769 2263.26 1769 2289 1794.74 2289 1826.5 2289 1858.26 2263.26 1884 2231.5 1884 2199.74 1884 2174 1858.26 2174 1826.5Z" fill-rule="evenodd"/><path d="M2208 1823.5C2208 1813.84 2215.83 1806 2225.5 1806 2235.17 1806 2243 1813.84 2243 1823.5 2243 1833.17 2235.17 1841 2225.5 1841 2215.83 1841 2208 1833.17 2208 1823.5Z" fill="#FFC000" fill-rule="evenodd"/><path d="M1559 1015.5C1559 938.456 1608.7 876 1670 876 1731.3 876 1781 938.456 1781 1015.5 1781 1092.54 1731.3 1155 1670 1155 1608.7 1155 1559 1092.54 1559 1015.5Z" stroke="#000000" stroke-width="27.5" stroke-miterlimit="8" fill="#C38369" fill-rule="evenodd"/><path d="M1684.45 974.186C1688.86 858.25 1663.83 688.368 1831.49 506.17 1898.33 430.493 2080.85 388.277 2197.25 388.002 2313.65 387.727 2449.43 428.841 2529.9 504.519 2607.65 583.499 2689.5 730.224 2683.71 975.011 2682.04 1102.04 2675.46 1268.48 2562.6 1422.74 2531.06 1458.69 2498.19 1468.84 2453.64 1506.37 2401.42 1548.48 2327.41 1569.22 2239.27 1565.59 2152.04 1569.4 2039.52 1510.14 1982 1485.23 1924.48 1460.32 1859.61 1443.15 1806.96 1366.59 1763.39 1315.64 1758.4 1268.7 1728.75 1211.69 1709.09 1152.21 1680.04 1090.12 1684.45 974.186Z" stroke="#000000" stroke-width="27.5" stroke-miterlimit="8" fill="#DA9D81" fill-rule="evenodd"/><path d="M1839.1 483 1837.86 485.262C1762.52 636.506 1778.14 772.888 1774.25 873.988 1769.05 1008.79 1803.3 1080.98 1826.49 1150.14 1861.45 1216.42 1867.33 1271 1918.71 1330.25 1980.8 1419.26 2057.29 1439.22 2125.11 1468.18 2167.51 1486.29 2235.23 1519.99 2305.18 1541.65L2344 1552.1 2316.16 1558.77C2296.5 1561.54 2275.46 1562.59 2252.81 1561.68 2163.14 1565.54 2047.47 1505.46 1988.34 1480.21 1929.21 1454.96 1862.53 1437.56 1808.4 1359.96 1763.61 1308.31 1758.48 1260.73 1728 1202.95 1707.79 1142.66 1677.93 1079.72 1682.46 962.205 1686.99 844.689 1661.26 672.492 1833.61 487.81Z" fill="#C38369" fill-rule="evenodd"/><path d="M1685.45 970.186C1689.86 854.25 1664.83 684.368 1832.49 502.17 1899.33 426.493 2081.85 384.277 2198.25 384.002 2314.65 383.727 2450.43 424.841 2530.9 500.519 2608.65 579.499 2690.5 726.224 2684.71 971.011 2683.04 1098.04 2676.46 1264.48 2563.6 1418.74 2532.06 1454.69 2499.19 1464.84 2454.64 1502.37 2402.42 1544.48 2328.41 1565.22 2240.27 1561.59 2153.04 1565.4 2040.52 1506.14 1983 1481.23 1925.48 1456.32 1860.61 1439.15 1807.96 1362.59 1764.39 1311.64 1759.4 1264.7 1729.75 1207.69 1710.09 1148.21 1681.04 1086.12 1685.45 970.186Z" stroke="#000000" stroke-width="27.5" stroke-miterlimit="8" fill="none" fill-rule="evenodd"/><path d="M2852.99-61.4511C2903.62 23.8017 2912.21 95.0467 2907.73 131.73 2897.68 260.751 2802.47 348.359 2683.14 423.64L2654.19 438.678 2666.41 462.441C2696.9 525.957 2695.74 529.359 2704.63 574.278 2724.62 692.445 2710.94 851.659 2682.45 984.558 2664.17 991.35 2668.82 750.064 2634.12 672.688 2584.1 593.763 2507 489.526 2400.13 515.466 2293.27 541.406 2302.21 537.915 2232.39 546.138 2162.57 554.361 2043.71 536.955 1963.4 560.355 1871.41 597.415 1753.31 662.748 1750.55 686.535 1744.85 712.634 1790.73 748.386 1753.14 767.238 1739.74 777.571 1701.74 786.44 1694.21 880.326 1687.29 956.761 1705.08 1154.07 1683.93 1076 1678.52 1098.97 1671.92 1073.15 1661.71 1018.14 1651.51 963.122 1653.71 822.077 1598.16 767.58 1641.16 748.301 1488.26 588.102 1464.07 465.013 1440.08 332.536 1442.59 230.334 1756.24 99.2368 1864.09 56.0342 2039.4 30.5766 2098.72 48.4317 2122.34 53.8149 2127.68 56.6912 2151.67 73.5325 2320.46 22.06 2338.78 46.1043 2467.65 40.2256 2624.37 37.2811 2710.79 47.3525 2852.99-61.4511Z" fill="#1F1313" fill-rule="evenodd"/><path d="M2447.44 509.68C2377.26 515.608 2332.45 536.599 2259.1 542.527 2127.22 553.667 2024.52 475.882 2015.96 374.623L2006.2 259.057C1997.65 157.799 2116.61 77.8124 2202.51 55.5736 2310.48 30.619 2359.78 42.1296 2423.36 41.7507 2302.58 51.3054 2208.19 140.014 2216.74 241.272L2226.5 356.839C2235.06 458.097 2315.56 520.82 2447.44 509.68Z" fill-rule="evenodd"/><path d="M2618.65 727.844 2289.9 755.331C2237.07 759.748 2197.83 806.156 2202.25 858.983L2225.05 1131.76C2229.47 1184.58 2275.88 1223.83 2328.7 1219.41L2657.45 1191.93C2710.28 1187.51 2749.53 1141.1 2745.11 1088.27L2722.3 815.5C2717.89 762.673 2671.48 723.427 2618.65 727.844Z" stroke="#000000" stroke-width="27.5" stroke-miterlimit="8" fill="#A9D18E" fill-rule="evenodd" fill-opacity="0.6"/><path d="M2545.01 879.357 2429.41 920.929C2415.34 925.991 2408.03 941.506 2413.09 955.581 2418.15 969.664 2433.66 976.959 2447.74 971.904L2471.32 963.425 2476.02 1019.71C2477.27 1034.62 2490.36 1045.69 2505.27 1044.45 2520.18 1043.2 2531.25 1030.11 2530 1015.2 2524.26 952.273 2525.84 952.238 2522.69 944.95L2563.34 930.332C2577.42 925.271 2584.72 909.755 2579.66 895.68 2574.6 881.601 2559.08 874.307 2545.01 879.357Z" fill="#1F1313" fill-rule="evenodd"/><path d="M2253.36 1325.96C2266.19 1328.03 2275.22 1338.21 2273.52 1348.69L2273.07 1349.75 2273.26 1349.79C2266.62 1390.98 2209.64 1416.06 2146.01 1405.79 2082.38 1395.52 2036.19 1353.8 2042.83 1312.61L2042.97 1312.63 2042.89 1311.65C2044.58 1301.16 2056.35 1294.34 2069.18 1296.41 2082.01 1298.48 2091.04 1308.66 2089.35 1319.14L2088.51 1321.13 2088.68 1327.71C2092.42 1345.76 2118.41 1363.07 2152.03 1368.49 2185.65 1373.92 2215.77 1365.66 2225 1349.71L2227.25 1343.46 2227.06 1341.19C2228.75 1330.71 2240.53 1323.89 2253.36 1325.96Z" fill="#1F1313" fill-rule="evenodd"/><path d="M1976.6 930.284C1991.58 927.726 2005.8 937.794 2008.35 952.773 2010.91 967.752 2000.84 981.969 1985.87 984.527L1949.58 990.724 1955.02 1057.34C1956.26 1072.48 1944.98 1085.76 1929.83 1087 1914.69 1088.23 1901.41 1076.96 1900.17 1061.81L1895.13 1000.02 1863.94 1005.35C1848.96 1007.91 1834.74 997.841 1832.19 982.862 1829.63 967.884 1839.7 953.667 1854.68 951.108Z" fill="#1F1313" fill-rule="evenodd"/><path d="M1880.96 63.1908C1788.71 123.857 1627.74 253.55 1678.32 348.071 1725.33 437.575 1776.1 536.933 1823.1 626.436 1778.11 673.024 1723.23 658.755 1767.9 742.881 1786.58 789.675 1654.55 795.674 1622.1 788.929 1589.64 782.184 1598.39 749.526 1573.17 702.411 1545.12 651.764 1519.64 611.538 1491.6 559.151 1391.74 350.126 1473.68 240.915 1616.87 164.285 1695.92 118.175 1827.6 67.3979 1880.96 63.1908Z" fill-rule="evenodd"/><path d="M2804.03 757.725C2863.9 752.719 2918.65 793.042 2930.37 851.974 2935.62 878.383 2939.44 905.354 2941.73 932.815 2943.97 959.519 2944.7 986.009 2944.01 1012.2 2942.41 1073.11 2895.72 1123.26 2835 1128.34L2734.82 1136.71 2740.19 1124.5C2744.07 1112.65 2745.69 1099.84 2744.59 1086.64L2721.78 813.861C2720.68 800.655 2716.95 788.297 2711.15 777.258L2703.83 766.102Z" stroke="#000000" stroke-width="27.5" stroke-miterlimit="8" fill="#E8E8E8" fill-rule="evenodd"/></g></svg>