<svg width="1542" height="1539" xmlns="http://www.w3.org/2000/svg" xmlns:xlink="http://www.w3.org/1999/xlink" xml:space="preserve" overflow="hidden"><defs><clipPath id="clip0"><rect x="2158" y="204" width="1542" height="1539"/></clipPath></defs><g clip-path="url(#clip0)" transform="translate(-2158 -204)"><path d="M2158 969C2158 546.502 2503.19 204 2929 204 3354.81 204 3700 546.502 3700 969 3700 1391.5 3354.81 1734 2929 1734 2503.19 1734 2158 1391.5 2158 969Z" fill="#DEEAF6" fill-rule="evenodd"/><path d="M3141.72 1137.22C3141.72 1070.95 3174.85 1017.22 3215.72 1017.22 3256.58 1017.22 3289.72 1070.95 3289.72 1137.22 3289.72 1203.5 3256.58 1257.22 3215.72 1257.22 3174.85 1257.22 3141.72 1203.5 3141.72 1137.22Z" stroke="#000000" stroke-width="18.3048" stroke-miterlimit="8" fill="#C38369" fill-rule="evenodd"/><path d="M2924.96 1396C3088.47 1396 3226.83 1503.88 3272.97 1652.46L3273 1652.59 3228.65 1673.82C3136.44 1712.57 3035.06 1734 2928.64 1734 2822.22 1734 2720.84 1712.57 2628.63 1673.82L2578 1649.58 2589.2 1618.92C2644.52 1487.92 2774.02 1396 2924.96 1396Z" stroke="#000000" stroke-width="18.3048" stroke-miterlimit="8" fill="#C7C5CB" fill-rule="evenodd"/><path d="M2587.57 1586 3263.43 1586C3278.1 1586 3290 1597.94 3290 1612.65L3290 1644.68 3229.28 1673.78C3183.16 1693.19 3134.75 1708.26 3084.56 1718.47L3054.76 1723 2803.61 1723 2773.81 1718.47C2698.52 1703.15 2627.24 1676.91 2561.69 1641.49L2561 1641.07 2561 1612.65C2561 1597.94 2572.9 1586 2587.57 1586Z" stroke="#000000" stroke-width="18.3048" stroke-miterlimit="8" fill="#B2B0BC" fill-rule="evenodd"/><path d="M2809.67 1368 3040.33 1368C3072.18 1368 3098 1393.89 3098 1425.83L3098 1714.81 3083.82 1718.44C3033.7 1728.64 2981.82 1734 2928.67 1734 2875.53 1734 2823.64 1728.64 2773.53 1718.44L2752 1712.94 2752 1425.83C2752 1393.89 2777.82 1368 2809.67 1368Z" stroke="#000000" stroke-width="18.3048" stroke-miterlimit="8" fill="#77718C" fill-rule="evenodd"/><path d="M2866.19 1628 2984.81 1628C3016.95 1628 3043 1654.09 3043 1686.27L3043 1724.66 3007.5 1730.04C2981.53 1732.66 2955.19 1734 2928.52 1734 2901.86 1734 2875.51 1732.66 2849.55 1730.04L2808 1723.74 2808 1686.27C2808 1654.09 2834.05 1628 2866.19 1628Z" stroke="#000000" stroke-width="18.3048" stroke-miterlimit="8" fill="#5C586F" fill-rule="evenodd"/><path d="M2927.5 1680C2948.76 1680 2966 1697.05 2966 1718.08L2963.1 1732.3 2928.86 1734 2891.88 1732.17 2889 1718.08C2889 1697.05 2906.23 1680 2927.5 1680Z" fill-rule="evenodd"/><path d="M2911.72 1715.72C2911.72 1709.37 2916.87 1704.22 2923.22 1704.22 2929.58 1704.22 2934.72 1709.37 2934.72 1715.72 2934.72 1722.08 2929.58 1727.22 2923.22 1727.22 2916.87 1727.22 2911.72 1722.08 2911.72 1715.72Z" fill="#FFC000" fill-rule="evenodd"/><path d="M2478.72 1177.22C2478.72 1125.86 2511.85 1084.22 2552.72 1084.22 2593.58 1084.22 2626.72 1125.86 2626.72 1177.22 2626.72 1228.58 2593.58 1270.22 2552.72 1270.22 2511.85 1270.22 2478.72 1228.58 2478.72 1177.22Z" stroke="#000000" stroke-width="18.3048" stroke-miterlimit="8" fill="#C38369" fill-rule="evenodd"/><path d="M2563.02 1149.85C2565.95 1072.59 2549.28 959.384 2660.94 837.97 2705.46 787.539 2827.02 759.407 2904.54 759.224 2982.06 759.041 3072.49 786.439 3126.09 836.869 3177.87 889.501 3232.38 987.276 3228.52 1150.4 3227.41 1235.05 3223.03 1345.96 3147.86 1448.76 3126.86 1472.72 3104.97 1479.48 3075.3 1504.49 3040.52 1532.55 2991.23 1546.37 2932.53 1543.95 2874.43 1546.49 2799.49 1507 2761.18 1490.4 2722.88 1473.8 2679.67 1462.36 2644.61 1411.34 2615.59 1377.39 2612.27 1346.11 2592.52 1308.12 2579.43 1268.48 2560.08 1227.11 2563.02 1149.85Z" stroke="#000000" stroke-width="18.3048" stroke-miterlimit="8" fill="#DA9D81" fill-rule="evenodd"/><path d="M2665.61 822.223 2664.78 823.731C2614.48 924.513 2624.91 1015.39 2622.31 1082.76 2618.84 1172.59 2641.71 1220.69 2657.19 1266.78 2680.53 1310.94 2684.46 1347.31 2718.76 1386.8 2760.22 1446.11 2811.29 1459.41 2856.57 1478.71 2884.88 1490.77 2930.09 1513.23 2976.8 1527.66L3002.72 1534.63 2984.13 1539.07C2971 1540.92 2956.95 1541.62 2941.83 1541.01 2881.96 1543.58 2804.73 1503.55 2765.25 1486.72 2725.77 1469.9 2681.25 1458.3 2645.11 1406.59 2615.21 1372.18 2611.78 1340.47 2591.43 1301.97 2577.94 1261.79 2558 1219.85 2561.02 1141.55 2564.05 1063.24 2546.87 948.493 2661.94 825.428Z" fill="#C38369" fill-rule="evenodd"/><path d="M2563.02 1146.85C2565.96 1069.59 2549.26 956.384 2661.09 834.97 2705.67 784.539 2827.42 756.407 2905.05 756.224 2982.69 756.041 3073.26 783.439 3126.93 833.869 3178.79 886.501 3233.39 984.276 3229.52 1147.4 3228.41 1232.05 3224.02 1342.96 3148.74 1445.76 3127.71 1469.72 3105.78 1476.48 3076.07 1501.49 3041.24 1529.55 2991.87 1543.37 2933.08 1540.95 2874.9 1543.49 2799.85 1504 2761.48 1487.4 2723.12 1470.8 2679.85 1459.36 2644.73 1408.34 2615.67 1374.39 2612.34 1343.11 2592.56 1305.12 2579.45 1265.48 2560.07 1224.11 2563.02 1146.85Z" stroke="#000000" stroke-width="18.3048" stroke-miterlimit="8" fill="none" fill-rule="evenodd"/><path d="M3341.54 459.223C3375.29 516.039 3381.01 563.519 3378.03 587.966 3371.33 673.951 3307.86 732.336 3228.32 782.506L3209.02 792.527 3217.16 808.364C3237.49 850.694 3236.72 852.961 3242.64 882.896 3255.97 961.647 3246.85 1067.75 3227.86 1156.32 3215.67 1160.85 3218.77 1000.05 3195.64 948.481 3162.3 895.882 3110.9 826.415 3039.67 843.702 2968.43 860.99 2974.39 858.663 2927.85 864.143 2881.31 869.623 2802.08 858.023 2748.55 873.618 2687.23 898.316 2608.5 941.856 2606.66 957.708 2602.86 975.102 2633.45 998.928 2608.39 1011.49 2599.46 1018.38 2574.13 1024.29 2569.11 1086.86 2564.49 1137.8 2576.35 1269.29 2562.25 1217.26 2558.65 1232.57 2554.25 1215.36 2547.44 1178.7 2540.64 1142.04 2542.11 1048.04 2505.08 1011.72 2533.74 998.872 2431.82 892.109 2415.7 810.078 2399.71 721.791 2401.38 653.68 2610.46 566.311 2682.35 537.52 2799.21 520.554 2838.75 532.453 2854.49 536.041 2858.05 537.958 2874.04 549.181 2986.56 514.878 2998.77 530.902 3084.67 526.984 3189.14 525.022 3246.75 531.734 3341.54 459.223Z" fill="#1F1313" fill-rule="evenodd"/><path d="M3071.72 839.624C3024.84 843.575 2994.91 857.564 2945.92 861.515 2857.84 868.939 2789.24 817.099 2783.53 749.615L2777.01 672.597C2771.3 605.113 2850.75 551.806 2908.13 536.986 2980.24 520.354 3013.17 528.026 3055.63 527.773 2974.96 534.141 2911.92 593.261 2917.63 660.744L2924.15 737.763C2929.87 805.247 2983.63 847.048 3071.72 839.624Z" fill-rule="evenodd"/><path d="M3185.27 985.449 2966.32 1003.76C2931.13 1006.71 2905 1037.63 2907.94 1072.83L2923.13 1254.59C2926.07 1289.79 2956.98 1315.94 2992.16 1313L3211.11 1294.69C3246.29 1291.74 3272.44 1260.82 3269.49 1225.61L3254.3 1043.86C3251.36 1008.66 3220.45 982.506 3185.27 985.449Z" stroke="#000000" stroke-width="18.3048" stroke-miterlimit="8" fill="#A9D18E" fill-rule="evenodd" fill-opacity="0.6"/><path d="M3136.59 1086.29 3059.65 1113.95C3050.28 1117.32 3045.42 1127.65 3048.78 1137.02 3052.15 1146.39 3062.48 1151.24 3071.85 1147.88L3087.54 1142.24 3090.67 1179.7C3091.5 1189.62 3100.21 1196.98 3110.14 1196.16 3120.06 1195.33 3127.43 1186.62 3126.6 1176.69 3122.78 1134.81 3123.83 1134.79 3121.73 1129.94L3148.79 1120.21C3158.16 1116.84 3163.02 1106.52 3159.65 1097.15 3156.28 1087.78 3145.95 1082.93 3136.59 1086.29Z" fill="#1F1313" fill-rule="evenodd"/><path d="M2693.72 542.224C2632.2 582.721 2524.87 669.297 2558.6 732.394 2589.94 792.142 2623.8 858.467 2655.14 918.214 2625.14 949.314 2588.54 939.789 2618.33 995.947 2630.78 1027.18 2542.75 1031.19 2521.11 1026.69 2499.47 1022.18 2505.3 1000.38 2488.48 968.931 2469.78 935.122 2452.79 908.269 2434.09 873.299 2367.51 733.766 2422.14 660.863 2517.62 609.708 2570.33 578.928 2658.14 545.032 2693.72 542.224Z" fill-rule="evenodd"/><path d="M3309.4 1005.5C3349.24 1002.16 3385.67 1029.05 3393.47 1068.35 3396.97 1085.96 3399.51 1103.95 3401.03 1122.26 3402.52 1140.07 3403.01 1157.73 3402.55 1175.2 3401.49 1215.81 3370.42 1249.25 3330.01 1252.64L3263.34 1258.22 3266.91 1250.08C3269.5 1242.18 3270.57 1233.64 3269.84 1224.84L3254.66 1042.94C3253.93 1034.13 3251.45 1025.89 3247.59 1018.53L3242.72 1011.09Z" stroke="#000000" stroke-width="18.3048" stroke-miterlimit="8" fill="#E8E8E8" fill-rule="evenodd"/><path d="M2942.17 1384.25C2950.71 1385.64 2956.71 1392.45 2955.58 1399.47L2955.28 1400.17 2955.41 1400.2C2950.99 1427.77 2913.09 1444.56 2870.77 1437.68 2828.45 1430.81 2797.72 1402.89 2802.14 1375.32L2802.23 1375.33 2802.18 1374.67C2803.3 1367.65 2811.13 1363.09 2819.67 1364.47 2828.2 1365.86 2834.21 1372.67 2833.08 1379.69L2832.52 1381.02 2832.64 1385.42C2835.12 1397.5 2852.41 1409.09 2874.77 1412.72 2897.14 1416.35 2917.17 1410.82 2923.31 1400.15L2924.8 1395.96 2924.68 1394.44C2925.8 1387.43 2933.64 1382.87 2942.17 1384.25Z" fill="#1F1313" fill-rule="evenodd"/><path d="M2706.31 1209.71C2707.13 1219.43 2715.67 1226.65 2725.38 1225.83 2735.1 1225.02 2742.32 1216.48 2741.51 1206.76L2738.44 1170.06 2754.52 1172.96C2764.11 1174.7 2773.3 1168.31 2775.03 1158.71 2776.76 1149.12 2770.39 1139.93 2760.78 1138.2L2681.96 1123.99C2672.38 1122.26 2663.18 1128.64 2661.45 1138.24 2659.72 1147.83 2666.09 1157.02 2675.69 1158.75L2703.41 1163.75C2702.18 1168.76 2703.2 1168.66 2706.31 1209.71Z" fill="#1F1313" fill-rule="evenodd"/></g></svg>